<svg xmlns="http://www.w3.org/2000/svg" xmlns:xlink="http://www.w3.org/1999/xlink" viewBox="0 0 500 500"><defs><clipPath id="freepik--clip-path--inject-312"><rect x="38.21" y="213.48" width="83.14" height="83.14" rx="8.93" style="fill:none;stroke:#2563EB;stroke-miterlimit:10"></rect></clipPath></defs><g id="freepik--background-simple--inject-312"><path d="M324.16,155.5c-19.75-17.82-46.45-34.08-77.74-35.27-35.36-1.36-66.23,17-86,37.91-30.32,32-43.24,71.57-44.14,110.68-.72,31.76,6.71,64.8,31.15,91.54s68.51,45.77,111.94,41.5c29.63-2.91,55.63-16,75-32.34,29-24.49,50.25-53,50.79-85.71.49-29.56-8.32-59.3-25.38-86.4A200.43,200.43,0,0,0,324.16,155.5Z" style="fill:#2563EB"></path><path d="M324.16,155.5c-19.75-17.82-46.45-34.08-77.74-35.27-35.36-1.36-66.23,17-86,37.91-30.32,32-43.24,71.57-44.14,110.68-.72,31.76,6.71,64.8,31.15,91.54s68.51,45.77,111.94,41.5c29.63-2.91,55.63-16,75-32.34,29-24.49,50.25-53,50.79-85.71.49-29.56-8.32-59.3-25.38-86.4A200.43,200.43,0,0,0,324.16,155.5Z" style="fill:#fff;opacity:0.9"></path></g><g id="freepik--Shadow--inject-312"><ellipse id="freepik--path--inject-312" cx="250" cy="415.69" rx="193.89" ry="11.32" style="fill:#f5f5f5"></ellipse></g><g id="freepik--device-1--inject-312"><g style="clip-path:url(#freepik--clip-path--inject-312)"><rect x="74.44" y="262.2" width="9.72" height="19.74" style="fill:#2563EB"></rect><rect x="74.44" y="262.2" width="9.72" height="19.74" style="fill:#2563EB"></rect><polygon points="88.54 282.29 70.13 282.29 74.62 278.34 84.05 278.34 88.54 282.29" style="fill:#2563EB"></polygon><polygon points="88.54 282.29 70.13 282.29 74.62 278.34 84.05 278.34 88.54 282.29" style="fill:#2563EB"></polygon><rect x="74.38" y="269.82" width="9.77" height="3.98" style="opacity:0.2"></rect><rect x="45.29" y="228.7" width="68.59" height="43.03" rx="1.25" style="fill:#2563EB"></rect><rect x="45.29" y="228.7" width="68.59" height="43.03" rx="1.25" style="fill:#fff;opacity:0.30000000000000004"></rect><rect x="47.78" y="231.39" width="63.54" height="37.5" rx="1.8" style="fill:#2563EB;opacity:0.8"></rect><rect x="47.78" y="231.39" width="63.54" height="37.5" rx="1.8" style="opacity:0.4"></rect><polygon points="87.82 244.22 79.25 249.35 70.68 244.37 70.68 244.22 79.25 239.25 87.81 244.22 87.82 244.22" style="fill:#2563EB;fill-rule:evenodd"></polygon><polygon points="88.74 245.81 88.74 255.76 80.17 260.74 80.17 250.78 88.74 245.81" style="fill:#2563EB;fill-rule:evenodd"></polygon><polygon points="78.41 250.78 78.41 260.74 69.84 255.76 69.84 245.81 78.42 250.78 78.41 250.78" style="fill:#2563EB;fill-rule:evenodd"></polygon><g style="opacity:0.7000000000000001"><polygon points="87.82 244.22 79.25 249.35 70.68 244.37 70.68 244.22 79.25 239.25 87.81 244.22 87.82 244.22" style="fill:#fff;fill-rule:evenodd"></polygon><polygon points="88.74 245.81 88.74 255.76 80.17 260.74 80.17 250.78 88.74 245.81" style="fill:#fff;fill-rule:evenodd"></polygon><polygon points="78.41 250.78 78.41 260.74 69.84 255.76 69.84 245.81 78.42 250.78 78.41 250.78" style="fill:#fff;fill-rule:evenodd"></polygon></g></g><rect x="38.21" y="213.48" width="83.14" height="83.14" rx="8.93" style="fill:none;stroke:#2563EB;stroke-miterlimit:10"></rect><rect x="38.21" y="213.48" width="83.14" height="83.14" rx="8.93" style="fill:none;stroke:#2563EB;stroke-miterlimit:10"></rect><path d="M163.63,278.06a2.24,2.24,0,0,1-.54.85l25.78,12.76.44-.9Z" style="fill:#2563EB"></path><path d="M128.42,260.62l-6.64-3.28-.44.89,6.73,3.34A2.48,2.48,0,0,1,128.42,260.62Z" style="fill:#2563EB"></path><path d="M149.62,271.12l-17.17-8.5a2.3,2.3,0,0,1-.44.9l17.58,8.7A2.55,2.55,0,0,1,149.62,271.12Z" style="fill:#2563EB"></path><path d="M153.63,273.11a2.15,2.15,0,0,1-.81.71l6.47,3.21a2.55,2.55,0,0,1,.26-1Z" style="fill:#2563EB"></path></g><g id="freepik--device-2--inject-312"><path d="M76.33,195.82H188.84a8.84,8.84,0,0,0,1-4.07H75.29A8.84,8.84,0,0,0,76.33,195.82Z" style="fill:#2563EB"></path><path d="M81.6,200.18h102a9,9,0,0,0,5.27-4.36H76.33A9,9,0,0,0,81.6,200.18Z" style="fill:#2563EB"></path><path d="M155.93,178.29H82.23a3.9,3.9,0,0,1-3.85-3.66L76,128.44a3.44,3.44,0,0,1,3.47-3.66h73.69a3.9,3.9,0,0,1,3.85,3.66l2.42,46.19A3.43,3.43,0,0,1,155.93,178.29Z" style="fill:#2563EB"></path><path d="M155.93,178.29H82.23a3.9,3.9,0,0,1-3.85-3.66L76,128.44a3.44,3.44,0,0,1,3.47-3.66h73.69a3.9,3.9,0,0,1,3.85,3.66l2.42,46.19A3.43,3.43,0,0,1,155.93,178.29Z" style="fill:#fff;opacity:0.4"></path><polygon points="124.96 191.81 114.46 191.81 116.58 174.32 124.96 174.32 124.96 191.81" style="fill:#2563EB"></polygon><polygon points="124.96 191.81 114.46 191.81 116.58 174.32 124.96 174.32 124.96 191.81" style="fill:#fff;opacity:0.4"></polygon><path d="M134.09,190.35H114.64l-.18,1.46h19.63a.73.73,0,1,0,0-1.46Z" style="fill:#2563EB"></path><path d="M134.09,190.35H114.64l-.18,1.46h19.63a.73.73,0,1,0,0-1.46Z" style="fill:#fff;opacity:0.30000000000000004"></path><polygon points="115.58 182.6 124.96 182.6 124.96 177.58 116.18 177.58 115.58 182.6" style="opacity:0.1"></polygon><path d="M156.55,178.29H82.86A3.9,3.9,0,0,1,79,174.63l-2.43-46.19a3.44,3.44,0,0,1,3.47-3.66h73.7a3.9,3.9,0,0,1,3.85,3.66L160,174.63A3.44,3.44,0,0,1,156.55,178.29Z" style="fill:#2563EB"></path><path d="M82.76,176.42h73.69a1.68,1.68,0,0,0,1.7-1.79l-2.42-46.19a1.92,1.92,0,0,0-1.89-1.79H80.15a1.68,1.68,0,0,0-1.7,1.79l2.43,46.19A1.9,1.9,0,0,0,82.76,176.42Z" style="fill:#2563EB"></path><path d="M82.76,176.42h73.69a1.68,1.68,0,0,0,1.7-1.79l-2.42-46.19a1.92,1.92,0,0,0-1.89-1.79H80.15a1.68,1.68,0,0,0-1.7,1.79l2.43,46.19A1.9,1.9,0,0,0,82.76,176.42Z" style="opacity:0.4"></path><polygon points="152.06 185.6 107.77 185.6 115.78 191.77 160.06 191.77 152.06 185.6" style="fill:#2563EB"></polygon><polygon points="152.06 185.6 107.77 185.6 115.78 191.77 160.06 191.77 152.06 185.6" style="fill:#fff;opacity:0.4"></polygon><polygon points="108.8 191.77 107.77 185.6 115.78 191.77 108.8 191.77" style="fill:#2563EB"></polygon><polygon points="108.8 191.77 107.77 185.6 115.78 191.77 108.8 191.77" style="opacity:0.5"></polygon><path d="M180.81,151.93c1.17,2.51,2.13,4.92,3.09,7.43s1.81,5,2.59,7.58,1.47,5.2,2,7.93a41.69,41.69,0,0,1,.88,8.62,17.74,17.74,0,0,1-.75,5,11.4,11.4,0,0,1-1.32,2.83,10.07,10.07,0,0,1-1.14,1.38l-.34.33c-.19.16-.4.33-.59.47a6.19,6.19,0,0,1-1.07.59,8.5,8.5,0,0,1-1.71.54,11,11,0,0,1-1.4.21,19.54,19.54,0,0,1-2.42,0,34,34,0,0,1-4.27-.48A80.14,80.14,0,0,1,159,190l1.15-4.37c5,.61,10.18,1.25,15,1.47,1.2,0,2.38.06,3.47,0a10.08,10.08,0,0,0,1.45-.18c.4-.07.74-.22.62-.21l-.22.11a1.28,1.28,0,0,0-.22.17h0a.92.92,0,0,0,.07-.13,4.56,4.56,0,0,0,.24-.71,11.21,11.21,0,0,0,.21-2.65,34.73,34.73,0,0,0-1-6.73c-.54-2.38-1.23-4.7-2-7.06s-1.58-4.71-2.49-7.05-1.85-4.71-2.79-6.92Z" style="fill:#ffb273"></path><path d="M162.32,186.79l-5.26-3-2.64,5.7s6.15,2.56,7.44,1Z" style="fill:#ffb273"></path><polygon points="152.81 184.91 150.4 188.72 154.42 189.49 157.06 183.79 152.81 184.91" style="fill:#ffb273"></polygon><path d="M168.55,156.46c-1,2.53-2.06,4.95-3.17,7.4s-2.22,4.86-3.4,7.27a139.06,139.06,0,0,1-7.93,14.28c-.79,1.17-1.59,2.34-2.47,3.5-.45.59-.94,1.17-1.46,1.76-.29.31-.52.58-.85.89l-.48.46-.27.26a6.87,6.87,0,0,1-2.6,1.38,11.37,11.37,0,0,1-1.54.32,15.54,15.54,0,0,1-2.55.1,32.61,32.61,0,0,1-4.4-.43,80.5,80.5,0,0,1-15.72-4.46l1.16-4.38c5.13.62,10.38,1.28,15.31,1.49,1.16,0,2.33,0,3.49-.05a9.35,9.35,0,0,0,1.39-.22,2.23,2.23,0,0,0,.43-.16s0-.06-.22.08a.65.65,0,0,0-.21.16.48.48,0,0,1,.08-.1l.22-.25c.14-.14.32-.38.48-.57.33-.41.66-.85,1-1.34.66-.94,1.31-2,1.94-3,1.27-2.13,2.45-4.39,3.61-6.67s2.27-4.62,3.36-7c2.18-4.68,4.32-9.47,6.35-14.19Z" style="fill:#ffb273"></path><path d="M125.12,186l-5.26-3-2.64,5.69s6.14,2.57,7.44,1Z" style="fill:#ffb273"></path><polygon points="115.61 184.08 113.19 187.88 117.22 188.65 119.86 182.96 115.61 184.08" style="fill:#ffb273"></polygon><path d="M182.17,128.32l-3.36,3.89-5.14,5.31.4,1a9.83,9.83,0,0,1,.68,3.07c.11,2.13-.09,3.93-3.45,5.37,0,0-3.52,4.6,4.86,3.33s9.63-5.63,9.63-5.63C182.08,142,181.88,133.2,182.17,128.32Z" style="fill:#ffb273"></path><path d="M165.09,123.92c0,.52-.26,1-.61,1s-.63-.39-.63-.92.27-1,.61-1S165.08,123.4,165.09,123.92Z" style="fill:#263238"></path><path d="M166.84,122a.3.3,0,0,1-.25-.14,2.53,2.53,0,0,0-1.92-1.22.32.32,0,0,1-.3-.32.31.31,0,0,1,.32-.3h0a3.17,3.17,0,0,1,2.42,1.5.32.32,0,0,1-.09.43A.35.35,0,0,1,166.84,122Z" style="fill:#263238"></path><path d="M164.9,124.21a16.89,16.89,0,0,1-1.82,4.07,2.5,2.5,0,0,0,2.15.15Z" style="fill:#630f0f"></path><path d="M182.64,121.28c-.31,6.47-.16,10.31-3.37,13.74a8.44,8.44,0,0,1-14.46-3.74c-1.46-5.73-.69-15.35,5.56-18.24a8.51,8.51,0,0,1,12.27,8.24Z" style="fill:#ffb273"></path><path d="M185.58,123.44a23.75,23.75,0,0,1-4.2,7.53L173,132.56s-6.65-2.78-4.87-7.37c-1.13-1-.71-3.89.08-5.51a3.44,3.44,0,0,0,4.5-.12,3.08,3.08,0,0,0,4.88.4,3.24,3.24,0,0,0,5.12-.82,2.92,2.92,0,0,0,3.4-.22l.12-.11A11.6,11.6,0,0,1,185.58,123.44Z" style="fill:#263238"></path><path d="M185.58,123.44a23.75,23.75,0,0,1-4.2,7.53L173,132.56s-6.65-2.78-4.87-7.37c-1.13-1-.71-3.89.08-5.51a3.44,3.44,0,0,0,4.5-.12,3.08,3.08,0,0,0,4.88.4,3.24,3.24,0,0,0,5.12-.82,2.92,2.92,0,0,0,3.4-.22l.12-.11A11.6,11.6,0,0,1,185.58,123.44Z" style="fill:#fff;opacity:0.1"></path><path d="M186.8,115.59a3,3,0,0,1-.62,3.22l-.12.11a2.92,2.92,0,0,1-3.4.22,3.24,3.24,0,0,1-5.12.82,3.08,3.08,0,0,1-4.88-.4,3.44,3.44,0,0,1-4.5.12,2.79,2.79,0,0,1-.79-1,1.53,1.53,0,0,1-.11-.27,2.28,2.28,0,0,1-.22.22,2.45,2.45,0,0,1-2.83.16,2.38,2.38,0,0,1-1-2.13,2.28,2.28,0,0,1,.09-.51,1.87,1.87,0,0,1-3.07.26A2.46,2.46,0,0,1,161,113a2.92,2.92,0,0,1,1.49-.4,3.86,3.86,0,0,1,2.28.79,2.34,2.34,0,0,1,3.76-2.8,2.06,2.06,0,0,1,.85-2.15,3.34,3.34,0,0,1,3.8,1s1.22-2.95,3.33-2.61c.46.06,2.63,1,2.57,1.8a.28.28,0,0,1,0,.15l.11-.18a2.36,2.36,0,0,1,2-1,7,7,0,0,1,2.44.65c1.64.68,3.39,1.43,4.34,2.93S188.5,115.12,186.8,115.59Z" style="fill:#263238"></path><path d="M171.79,125.79A7.59,7.59,0,0,1,169.7,130c-1.44,1.37-2.66,0-2.67-2.09,0-1.89.7-4.88,2.38-5.43S172.1,123.74,171.79,125.79Z" style="fill:#ffb273"></path><path d="M189.89,191.64V143.72c-1.76.05-3.76.19-5.73.42a120.38,120.38,0,0,0-13.48,2.27c-2.05.54-4,1.22-5.6,1.81-2,.79-3.17,1.32-3.17,1.32s2.19,14.58,3.32,29.07c.63,8.06.37,16.06.58,21.57h17.76A8.94,8.94,0,0,0,189.89,191.64Z" style="fill:#2563EB"></path><path d="M164.5,170.51c.26,3,.52,6.23.8,9.42,4-5.79,6.16-21.63,6.16-21.63Z" style="opacity:0.2;isolation:isolate"></path><path d="M160,150.61c-4.85,2.73-9.6,16.69-9.6,16.69l11.1,8.37c4.23-4,10.43-13.94,11.1-17.92C173.69,151.65,167.76,146.26,160,150.61Z" style="fill:#2563EB"></path><path d="M169.2,200.57V153.71a10.77,10.77,0,0,1,3.69-8.12l5.86-5.13a10.78,10.78,0,0,1,7.12-2.67h0a10.78,10.78,0,0,0-7.11,2.68l-5.86,5.13a10.81,10.81,0,0,0-3.69,8.13v46.85Z" style="fill:#2563EB"></path><path d="M178.75,140.46l-5.86,5.13a10.77,10.77,0,0,0-3.69,8.12v46.86h7.05V153.72a10.77,10.77,0,0,1,3.69-8.13l5.86-5.13a10.73,10.73,0,0,1,4.09-2.24v-.43h-4A10.78,10.78,0,0,0,178.75,140.46Z" style="fill:#2563EB"></path><path d="M178.75,140.46l-5.86,5.13a10.77,10.77,0,0,0-3.69,8.12v46.86h7.05V153.72a10.77,10.77,0,0,1,3.69-8.13l5.86-5.13a10.73,10.73,0,0,1,4.09-2.24v-.43h-4A10.78,10.78,0,0,0,178.75,140.46Z" style="fill:#fff;opacity:0.30000000000000004"></path><path d="M179.94,145.59a10.77,10.77,0,0,0-3.69,8.13v46.85H181a8.93,8.93,0,0,0,8.94-8.93V138.22a10.73,10.73,0,0,0-4.09,2.24Z" style="fill:#2563EB"></path><path d="M179.94,145.59a10.77,10.77,0,0,0-3.69,8.13v46.85H181a8.93,8.93,0,0,0,8.94-8.93V138.22a10.73,10.73,0,0,0-4.09,2.24Z" style="fill:#fff;opacity:0.7000000000000001"></path><polygon points="136.05 172.22 94.72 172.22 92.91 146.3 134.24 146.3 136.05 172.22" style="fill:#2563EB"></polygon><polygon points="136.05 172.22 94.72 172.22 92.91 146.3 134.24 146.3 136.05 172.22" style="opacity:0.5"></polygon><polygon points="134.35 147.96 93.02 147.96 92.91 146.3 134.24 146.3 134.35 147.96" style="fill:#2563EB"></polygon><polygon points="151.85 158.05 110.52 158.05 108.71 132.13 150.04 132.13 151.85 158.05" style="fill:#2563EB"></polygon><polygon points="151.85 158.05 110.52 158.05 108.71 132.13 150.04 132.13 151.85 158.05" style="fill:#fff;opacity:0.8"></polygon><polygon points="150.16 133.79 108.83 133.79 108.71 132.13 150.04 132.13 150.16 133.79" style="fill:#2563EB"></polygon><path d="M138.62,206.69,133,200.47l-.74.68,6,6.56A2.48,2.48,0,0,1,138.62,206.69Z" style="fill:#2563EB"></path><path d="M147.87,216.84a2.19,2.19,0,0,1-.55.88l12.16,13.35a2,2,0,0,1,.87-.54Z" style="fill:#2563EB"></path><path d="M145.07,213.77l-3.35-3.68a2.18,2.18,0,0,1-1,.36l3.49,3.83A2,2,0,0,1,145.07,213.77Z" style="fill:#2563EB"></path><path d="M180.41,252.55l-17.23-18.91a2.16,2.16,0,0,1-.57.86l17.34,19A2.35,2.35,0,0,1,180.41,252.55Z" style="fill:#2563EB"></path><path d="M183.54,256a2,2,0,0,1-1,.43l16.64,18.26L200,274Z" style="fill:#2563EB"></path><rect x="75.28" y="85.97" width="114.6" height="114.6" rx="8.93" style="fill:none;stroke:#2563EB;stroke-miterlimit:10"></rect></g><g id="freepik--device-3--inject-312"><path d="M211.4,138.06a8.9,8.9,0,0,0,4.58,1.28h15.77l1.7-5.73L218,124.85Z" style="fill:#ff8b7b"></path><path d="M237,91.28l-6.14,3.19s-.6,23,0,26.22a5.7,5.7,0,0,0,3.65,4.16l6.2-4.85Z" style="fill:#ff8b7b"></path><path d="M230.9,94.47A155.32,155.32,0,0,0,218,124.85c-3.13,10.24,15.06,10.89,18.39,7.28.83-.9,7-10.23,7-10.23Z" style="fill:#ff8b7b"></path><g id="freepik--group--inject-312"><path d="M256.44,125.23H235.69a3.22,3.22,0,0,1-3.25-3.57l3.95-45.13A4,4,0,0,1,240.27,73H261a3.22,3.22,0,0,1,3.25,3.57l-3.95,45.13A4,4,0,0,1,256.44,125.23Z" style="fill:#2563EB"></path><path d="M256.44,125.23H235.69a3.22,3.22,0,0,1-3.25-3.57l3.95-45.13A4,4,0,0,1,240.27,73H261a3.22,3.22,0,0,1,3.25,3.57l-3.95,45.13A4,4,0,0,1,256.44,125.23Z" style="opacity:0.1"></path><g style="opacity:0.8"><path d="M246.15,123.71a1.68,1.68,0,0,1-1.24-.53,1.63,1.63,0,0,1-.42-1.29,2,2,0,0,1,2-1.81,1.66,1.66,0,0,1,1.24.54,1.61,1.61,0,0,1,.42,1.29h0A2,2,0,0,1,246.15,123.71Zm.3-3.39a1.77,1.77,0,0,0-1.73,1.59,1.48,1.48,0,0,0,.37,1.11,1.42,1.42,0,0,0,1.06.45,1.77,1.77,0,0,0,1.73-1.58h0a1.46,1.46,0,0,0-.37-1.11A1.39,1.39,0,0,0,246.45,120.32Z" style="fill:#fff"></path></g><g style="opacity:0.8"><path d="M253.66,77.12h-6.72a.73.73,0,0,1-.52-.22.71.71,0,0,1-.17-.54V76.2a.83.83,0,0,1,.81-.74h6.71a.68.68,0,0,1,.52.23.72.72,0,0,1,.18.53l0,.16A.81.81,0,0,1,253.66,77.12Zm-6.59-1.42a.58.58,0,0,0-.57.52v.16a.44.44,0,0,0,.11.36.48.48,0,0,0,.34.14h6.72a.58.58,0,0,0,.57-.52V76.2a.44.44,0,0,0-.12-.35.42.42,0,0,0-.34-.15Z" style="fill:#fff"></path></g><polygon points="252.32 73.13 240.75 125.23 247.7 125.23 259.16 73.13 252.32 73.13" style="fill:#fff;opacity:0.1;isolation:isolate"></polygon><polygon points="246.91 73.13 235.34 125.23 238.85 125.23 250.3 73.13 246.91 73.13" style="fill:#fff;opacity:0.1;isolation:isolate"></polygon><polygon points="258.6 117.9 234.71 117.9 238.08 79.39 261.97 79.39 258.6 117.9" style="fill:#2563EB"></polygon><polygon points="258.6 117.9 234.71 117.9 238.08 79.39 261.97 79.39 258.6 117.9" style="fill:#fff;opacity:0.7000000000000001"></polygon></g><path d="M258.74,93.73a1.1,1.1,0,0,1,0,.18,1.91,1.91,0,0,1-.57,1,1.78,1.78,0,0,1-1.22.49H240a1.5,1.5,0,0,1-1.52-1.48,1.09,1.09,0,0,1,0-.18,1.82,1.82,0,0,1,.59-1.18,1.8,1.8,0,0,1,1.22-.48h17A1.5,1.5,0,0,1,258.74,93.73Z" style="fill:#2563EB"></path><path d="M258.74,93.73a1.1,1.1,0,0,1,0,.18,1.91,1.91,0,0,1-.57,1,1.78,1.78,0,0,1-1.22.49H240a1.5,1.5,0,0,1-1.52-1.48,1.09,1.09,0,0,1,0-.18,1.82,1.82,0,0,1,.59-1.18,1.8,1.8,0,0,1,1.22-.48h17A1.5,1.5,0,0,1,258.74,93.73Z" style="fill:#fff;opacity:0.8"></path><path d="M238.45,93.91s0,.11,0,.16a1.79,1.79,0,0,1,.59-1.11,1.76,1.76,0,0,1,1.22-.49l18,0a1.51,1.51,0,0,0-1.08-.43h-17a1.8,1.8,0,0,0-1.22.48,1.82,1.82,0,0,0-.59,1.18A1.09,1.09,0,0,0,238.45,93.91Z" style="fill:#2563EB"></path><path d="M238.45,93.91s0,.11,0,.16a1.79,1.79,0,0,1,.59-1.11,1.76,1.76,0,0,1,1.22-.49l18,0a1.51,1.51,0,0,0-1.08-.43h-17a1.8,1.8,0,0,0-1.22.48,1.82,1.82,0,0,0-.59,1.18A1.09,1.09,0,0,0,238.45,93.91Z" style="fill:#fff;opacity:0.5;isolation:isolate"></path><path d="M241.79,92.87l-.07.8.81-.27.11.4-.81.25.43.69-.38.25-.41-.71-.54.71-.35-.25.56-.69-.77-.25.17-.4.76.28.07-.81Z" style="fill:#263238"></path><path d="M246.43,92.87l-.07.8.81-.27.11.4-.81.25.43.69-.38.25-.41-.71-.54.71-.35-.25.55-.69L245,93.8l.18-.4.76.28.07-.81Z" style="fill:#263238"></path><path d="M251.07,92.87l-.08.8.82-.27.11.4-.81.25.42.69-.38.25-.41-.71-.54.71-.34-.25.55-.69-.77-.25.18-.4.76.28.07-.81Z" style="fill:#263238"></path><path d="M255.7,92.87l-.07.8.81-.27.11.4-.81.25.43.69-.38.25-.41-.71-.54.71-.34-.25.55-.69-.77-.25.18-.4.75.28.07-.81Z" style="fill:#263238"></path><rect x="244.04" y="91.28" width="0.79" height="0.2" style="fill:#2563EB"></rect><rect x="240.64" y="91.28" width="2.58" height="0.2" style="fill:#2563EB"></rect><path d="M265.58,76.52l-3.94,45.15a4,4,0,0,1-3.88,3.55h-1.32a4,4,0,0,0,3.87-3.55l3.95-45.15A3.2,3.2,0,0,0,261,73h1.32A3.2,3.2,0,0,1,265.58,76.52Z" style="fill:#2563EB"></path><path d="M265.58,76.52l-3.94,45.15a4,4,0,0,1-3.88,3.55h-1.32a4,4,0,0,0,3.87-3.55l3.95-45.15A3.2,3.2,0,0,0,261,73h1.32A3.2,3.2,0,0,1,265.58,76.52Z" style="fill:#fff;opacity:0.5"></path><rect x="263.81" y="85.1" width="1.74" height="0.36" transform="translate(160.52 343.12) rotate(-85.86)" style="fill:#2563EB"></rect><rect x="262.51" y="80.17" width="5.06" height="0.36" transform="translate(165.76 338.9) rotate(-85.86)" style="fill:#2563EB"></rect><path d="M251.86,110.41H241.61a2,2,0,0,1-2.06-2.25h0A2.51,2.51,0,0,1,242,105.9h10.25a2,2,0,0,1,2.06,2.26h0A2.51,2.51,0,0,1,251.86,110.41Z" style="fill:#2563EB"></path><path d="M251.86,110.41H241.61a2,2,0,0,1-2.06-2.25h0A2.51,2.51,0,0,1,242,105.9h10.25a2,2,0,0,1,2.06,2.26h0A2.51,2.51,0,0,1,251.86,110.41Z" style="opacity:0.4"></path><path d="M230.9,106.51l9.27-1.49,1.29.13a2.16,2.16,0,0,1,1.83,2.8,7.74,7.74,0,0,1-1,2.41c-.34,0-9.56,7.54-9.56,7.54s-2,1.83-1.87-.53Z" style="fill:#ff8b7b"></path><rect x="207.05" y="56.2" width="83.14" height="83.14" rx="8.93" style="fill:none;stroke:#2563EB;stroke-miterlimit:10"></rect><path d="M258.72,153a2.56,2.56,0,0,1,.82.14l1.19-13.61-1-.09L258.55,153Z" style="fill:#2563EB"></path><path d="M258.79,161.72l.36-4.15a2.86,2.86,0,0,1-.43,0,2.62,2.62,0,0,1-.57-.07l-.35,4A2.49,2.49,0,0,1,258.79,161.72Z" style="fill:#2563EB"></path><path d="M256.43,188.67l2-22.59a2.61,2.61,0,0,1-.64.08c-.13,0-.25,0-.37,0l-1.93,22A2.15,2.15,0,0,1,256.43,188.67Z" style="fill:#2563EB"></path><path d="M254,206.17a2.3,2.3,0,0,1,.91.18l1.22-13.89a2.22,2.22,0,0,1-1,.3l-1.18,13.42Z" style="fill:#2563EB"></path><path d="M254,210.84a2.44,2.44,0,0,1-.48-.05l-4.71,53.88,1,.09,4.73-54A2.26,2.26,0,0,1,254,210.84Z" style="fill:#2563EB"></path></g><g id="freepik--device-4--inject-312"><path d="M341.77,103.66a1.19,1.19,0,0,0-.47-1.29c0,.76-.07,1.51-.15,2.26A1.27,1.27,0,0,0,341.77,103.66Z" style="fill:#263238"></path><path d="M341.92,109.15a21,21,0,0,1-1-2.86,27.59,27.59,0,0,1-.65,3A3.17,3.17,0,0,0,341.92,109.15Z" style="fill:#630f0f"></path><path d="M318.38,101.15c-.17,1.75-.3,3.33-.3,4.8-.61,6.2-2.55,16.73-7.58,19.27,0,0,.75,5.66,10.95,8.84s6.68-3.23,6.68-3.23c-4.75-3-4.65-6.4-3.12-9.79a22.2,22.2,0,0,1,1.16-2.28,10.59,10.59,0,0,0,12.88-5.92H339a1.71,1.71,0,0,1-1.19-.44,1.66,1.66,0,0,1-.5-1.43l0-.12.5.08,0,.11a1.12,1.12,0,0,0,.35,1,1.1,1.1,0,0,0,1,.28l.05.25a24.55,24.55,0,0,0,1.1-3.27,27.59,27.59,0,0,0,.65-3c.09-.55.17-1.1.22-1.66.08-.75.13-1.5.15-2.26,0-.41,0-.81,0-1.22Z" style="fill:#7f3e3b"></path><path d="M338.12,112a1.12,1.12,0,0,1-.35-1l0-.11-.5-.08,0,.12a1.66,1.66,0,0,0,.5,1.43,1.71,1.71,0,0,0,1.19.44h.09l.18,0-.05-.24-.05-.25A1.1,1.1,0,0,1,338.12,112Z"></path><path d="M319,112.44a3.11,3.11,0,0,0,.55.48,3.85,3.85,0,0,0,3.45.41,3.4,3.4,0,0,0,2.15-1.94c1.36.16,2.47-1.22,2.62-2.57a10.49,10.49,0,0,0-.74-4,5.54,5.54,0,0,1-.05-3.68h-11a9,9,0,0,0-8,4.88,3.73,3.73,0,0,0,.15,1.9,3.93,3.93,0,0,0,4.27,2.44,3.82,3.82,0,0,0,2.62,3.21,3.7,3.7,0,0,0,1.84.08A3.74,3.74,0,0,0,319,112.44Z" style="fill:#263238"></path><path d="M334.5,101.15h-2.32c.06.12.11.24.16.37a5.49,5.49,0,0,1-.06,3.08A11.46,11.46,0,0,0,334.5,101.15Z" style="fill:#263238"></path><g id="freepik--group--inject-312"><path d="M401,210.7a10.42,10.42,0,0,1,.18,1.14C401.15,211.45,401.1,211.07,401,210.7Z" style="fill:#2563EB"></path><path d="M391,198.5l.35.19Z" style="fill:#2563EB"></path><path d="M398.22,204.43a21.37,21.37,0,0,0-6.28-5.38A21.41,21.41,0,0,1,398.22,204.43Z" style="fill:#2563EB"></path><path d="M400.77,209.58c.06.23.11.47.16.7C400.88,210.05,400.83,209.81,400.77,209.58Z" style="fill:#2563EB"></path><path d="M399.51,206.42c.13.25.25.5.37.76C399.76,206.92,399.64,206.67,399.51,206.42Z" style="fill:#2563EB"></path><path d="M398.92,205.43c.17.26.33.53.48.8C399.25,206,399.09,205.69,398.92,205.43Z" style="fill:#2563EB"></path><path d="M398.25,204.47c.21.27.4.56.59.85C398.65,205,398.46,204.74,398.25,204.47Z" style="fill:#2563EB"></path><path d="M400,207.45c.1.23.2.47.29.71C400.21,207.92,400.11,207.68,400,207.45Z" style="fill:#2563EB"></path><path d="M400.43,208.5c.08.22.15.45.22.68C400.58,209,400.51,208.72,400.43,208.5Z" style="fill:#2563EB"></path><path d="M400.3,208.16c0,.11.09.22.13.34C400.39,208.38,400.34,208.27,400.3,208.16Z" style="opacity:0.4"></path><path d="M398.84,205.32a1,1,0,0,1,.08.11A1,1,0,0,0,398.84,205.32Z" style="opacity:0.4"></path><path d="M399.88,207.18l.13.27Z" style="opacity:0.4"></path><path d="M399.4,206.23a1.18,1.18,0,0,0,.11.19A1.18,1.18,0,0,1,399.4,206.23Z" style="opacity:0.4"></path><path d="M400.65,209.18l.12.4Z" style="opacity:0.4"></path><path d="M400.93,210.28c0,.14.07.28.09.42C401,210.56,401,210.42,400.93,210.28Z" style="opacity:0.4"></path><path d="M391,198.5c-18.65-10.17-56.09-6.84-56.34-6.82l-17.7,2.39,26.14-2.18C343.32,191.87,374.31,189.5,391,198.5Z" style="opacity:0.4"></path><path d="M391.32,198.69l.62.36Z" style="opacity:0.4"></path><path d="M398.22,204.43l0,0Z" style="opacity:0.4"></path><path d="M401.2,211.84a10.42,10.42,0,0,0-.18-1.14c0-.14-.06-.28-.09-.42s-.1-.47-.16-.7l-.12-.4c-.07-.23-.14-.46-.22-.68s-.09-.23-.13-.34-.19-.48-.29-.71l-.13-.27c-.12-.26-.24-.51-.37-.76a1.18,1.18,0,0,1-.11-.19c-.15-.27-.31-.54-.48-.8a1,1,0,0,0-.08-.11c-.19-.29-.38-.58-.59-.85l0,0a21.41,21.41,0,0,0-6.28-5.38l-.62-.36-.35-.19c-16.66-9-47.65-6.63-47.9-6.61l-26.14,2.18a.92.92,0,0,0,0,.16l-9.92,1v11.63a8.93,8.93,0,0,0,8.93,8.93h86.26Z" style="fill:#2563EB"></path><path d="M401.2,211.84a10.42,10.42,0,0,0-.18-1.14c0-.14-.06-.28-.09-.42s-.1-.47-.16-.7l-.12-.4c-.07-.23-.14-.46-.22-.68s-.09-.23-.13-.34-.19-.48-.29-.71l-.13-.27c-.12-.26-.24-.51-.37-.76a1.18,1.18,0,0,1-.11-.19c-.15-.27-.31-.54-.48-.8a1,1,0,0,0-.08-.11c-.19-.29-.38-.58-.59-.85l0,0a21.41,21.41,0,0,0-6.28-5.38l-.62-.36-.35-.19c-16.66-9-47.65-6.63-47.9-6.61l-26.14,2.18a.92.92,0,0,0,0,.16l-9.92,1v11.63a8.93,8.93,0,0,0,8.93,8.93h86.26Z" style="opacity:0.4"></path><g id="freepik--monitor-screen--inject-312"><g id="freepik--PC--inject-312"><polygon points="390.83 187.64 331.91 186.28 336.04 149 394.95 150.36 390.83 187.64" style="fill:#2563EB"></polygon><path d="M390,190.54l-58.06-1.34a2.68,2.68,0,0,1-2.65-3l4.1-37a3.31,3.31,0,0,1,3.31-2.91l58.06,1.34a2.68,2.68,0,0,1,2.65,3l-4.1,37A3.31,3.31,0,0,1,390,190.54Z" style="fill:#2563EB"></path><g style="opacity:0.5"><polygon points="390.83 187.64 331.91 186.28 336.04 149 394.95 150.36 390.83 187.64"></polygon><polygon points="390.83 187.64 331.91 186.28 336.04 149 394.95 150.36 390.83 187.64" style="opacity:0.9"></polygon></g><polygon points="390.7 187.78 331.78 186.42 335.91 149.15 394.82 150.51 390.7 187.78" style="fill:#fff;opacity:0.9"></polygon><polygon points="387.62 161.04 376.8 160.79 377.47 154.72 388.29 154.96 387.62 161.04" style="fill:#2563EB"></polygon><polygon points="386.29 173.02 375.47 172.77 376.15 166.69 386.96 166.94 386.29 173.02" style="fill:#2563EB"></polygon><polygon points="384.96 185 374.15 184.75 374.82 178.67 385.64 178.92 384.96 185" style="fill:#2563EB"></polygon><polygon points="382.12 147.19 369.62 189.97 373.49 190.06 385.87 147.28 382.12 147.19" style="fill:#fff;opacity:0.1;isolation:isolate"></polygon><polygon points="388.1 147.33 375.6 190.11 383.27 190.29 395.65 147.51 388.1 147.33" style="fill:#fff;opacity:0.1;isolation:isolate"></polygon><polygon points="338.62 179.26 338.58 179.61 369.8 180.33 369.84 179.98 338.62 179.26" style="fill:#2563EB"></polygon><polygon points="370.28 176.02 339.09 175.3 341.47 153.81 372.66 154.52 370.28 176.02" style="fill:#2563EB"></polygon><path d="M339.75,183.81h0a1.44,1.44,0,0,1-1.42-1.63h0a1.78,1.78,0,0,1,1.78-1.56h0a1.44,1.44,0,0,1,1.42,1.63h0A1.78,1.78,0,0,1,339.75,183.81Z" style="fill:#2563EB"></path><polygon points="354.39 178.3 338.8 177.94 338.95 176.57 354.55 176.93 354.39 178.3" style="fill:#2563EB"></polygon><polygon points="369.42 183.59 363.39 183.45 363.55 182.07 369.57 182.21 369.42 183.59" style="fill:#2563EB"></polygon><polygon points="369.98 178.66 368.61 178.63 368.76 177.26 370.14 177.29 369.98 178.66" style="fill:#2563EB"></polygon><polygon points="367.65 178.61 366.27 178.58 366.43 177.2 367.8 177.23 367.65 178.61" style="fill:#2563EB"></polygon><polygon points="365.32 178.55 363.94 178.52 364.09 177.15 365.47 177.18 365.32 178.55" style="fill:#2563EB"></polygon><polygon points="354.39 178.3 338.8 177.94 338.95 176.57 354.55 176.93 354.39 178.3" style="fill:#fff;opacity:0.2"></polygon><polygon points="369.84 179.98 338.62 179.26 338.58 179.61 369.8 180.33 369.84 179.98" style="opacity:0.2"></polygon></g></g><path d="M371.53,189.82l19.6.71c.19,2.29-.84,3.08-2.09,3l-6.26-.25-4.19-.18-6.5-.23-29.9-.74-.14-2.86Z" style="fill:#2563EB"></path><path d="M371.53,189.82l19.6.71c.19,2.29-.84,3.08-2.09,3l-6.26-.25-4.19-.18-6.5-.23-29.9-.74-.14-2.86Z" style="opacity:0.4"></path><path d="M391.13,190.53l.06.8a2.08,2.08,0,0,1-2.15,2.24l-6.26-.25L371.14,193l.39-3.17Z" style="opacity:0.2"></path><path d="M309,124.22l19.1,1.65s-2.14-4.87-8.93-5.36A12.22,12.22,0,0,0,309,124.22Z" style="fill:#2563EB"></path><path d="M342.57,136.43a10.73,10.73,0,0,0-8-10.46c-1.33-.35-2.51-.63-3.23-.76a152.1,152.1,0,0,0-17.18-1.44c-2.46-.08-5-.06-7.13.06v73.35a49.55,49.55,0,0,0,22.61-1.07L343,192.26C342.38,178,342.48,150.25,342.57,136.43Z" style="fill:#2563EB"></path><path d="M342.57,136.43a10.73,10.73,0,0,0-8-10.46c-1.33-.35-2.51-.63-3.23-.76a152.1,152.1,0,0,0-17.18-1.44c-2.46-.08-5-.06-7.13.06v73.35a49.55,49.55,0,0,0,22.61-1.07L343,192.26C342.38,178,342.48,150.25,342.57,136.43Z" style="fill:#2563EB"></path><path d="M342.57,136.43a10.73,10.73,0,0,0-8-10.46c-1.33-.35-2.51-.63-3.23-.76a152.1,152.1,0,0,0-17.18-1.44c-2.46-.08-5-.06-7.13.06v73.35a49.55,49.55,0,0,0,22.61-1.07L343,192.26C342.38,178,342.48,150.25,342.57,136.43Z" style="fill:#fff;opacity:0.7000000000000001"></path><path d="M322.07,135.79c-.5,5.21-1.29,16.43,1.51,25.84l5.53.08A32.53,32.53,0,0,0,340.4,160h0s2.85-14.15-1.44-22.67C335.3,130.05,322.84,127.68,322.07,135.79Z" style="opacity:0.2;isolation:isolate"></path><path d="M334.9,128.28c.71,6.44,1.51,13,2.41,19.46.45,3.24.93,6.46,1.48,9.64s1.14,6.34,1.88,9.37c.37,1.52.76,3,1.21,4.4.22.71.46,1.36.7,2,.13.29.25.64.37.87l.18.38.06.14a1.89,1.89,0,0,0-.2-.27c-.21-.24-.29-.19-.23-.17a2.32,2.32,0,0,0,.46.35,11.16,11.16,0,0,0,1.59.78,40.83,40.83,0,0,0,4.19,1.34c6,1.58,13.32,4.61,19.74,5.76l-.22,5.7c-6.87.56-21.37-1.29-26.8-3.42a20.26,20.26,0,0,1-3-1.06,14.75,14.75,0,0,1-1.74-1,8.54,8.54,0,0,1-2.62-2.63l-.23-.41-.41-.73c-.28-.49-.46-.91-.69-1.38-.41-.91-.79-1.79-1.11-2.66-.64-1.74-1.17-3.43-1.69-5.14a175.48,175.48,0,0,1-4.28-20.14c-.53-3.34-1-6.66-1.41-10v-.11a9.74,9.74,0,0,1,8.77-10.91Z" style="fill:#7f3e3b"></path><path d="M365.72,186.61c.74,2.49,9.14,2.47,9.14,2.47l-.32-7.9-7.59.94Z" style="fill:#7f3e3b"></path><polygon points="374.54 181.18 374.86 189.09 379.91 190.13 378.94 184.54 374.54 181.18" style="fill:#7f3e3b"></polygon><path d="M322.51,132.74c-1.24,4.92.85,19.54,3.7,26.32l17.41-2.57s1.27-20-2.94-25.59C333.93,121.94,324.36,125.15,322.51,132.74Z" style="fill:#2563EB"></path><path d="M322.51,132.74c-1.24,4.92.85,19.54,3.7,26.32l17.41-2.57s1.27-20-2.94-25.59C333.93,121.94,324.36,125.15,322.51,132.74Z" style="fill:#fff;opacity:0.30000000000000004"></path></g><rect x="307" y="100.72" width="114.6" height="114.6" rx="8.93" style="fill:none;stroke:#2563EB;stroke-miterlimit:10"></rect><path d="M359.09,220.1l5.52-4.38-.62-.78-5.84,4.63A1.9,1.9,0,0,1,359.09,220.1Z" style="fill:#2563EB"></path><path d="M333.64,239l-32.56,25.84.62.78,32.54-25.82A2,2,0,0,1,333.64,239Z" style="fill:#2563EB"></path><path d="M337.74,237l17.79-14.12a2.47,2.47,0,0,1-.25-1.07l-18.1,14.36A2.14,2.14,0,0,1,337.74,237Z" style="fill:#2563EB"></path></g><g id="freepik--device-5--inject-312"><rect x="409.25" y="243.42" width="32.19" height="52.21" style="fill:#2563EB"></rect><rect x="409.25" y="243.42" width="32.19" height="52.21" style="opacity:0.4"></rect><rect x="392.13" y="243.42" width="29.78" height="52.21" style="fill:#2563EB"></rect><rect x="392.13" y="243.42" width="29.78" height="52.21" style="fill:#fff;opacity:0.7000000000000001"></rect><rect x="393.85" y="245.78" width="26.34" height="6.58" style="fill:#2563EB"></rect><rect x="395.91" y="247.59" width="0.76" height="4.14" style="fill:#fff"></rect><rect x="398.84" y="247.59" width="0.76" height="4.14" style="fill:#fff"></rect><rect x="397.37" y="248.76" width="0.76" height="2.96" style="fill:#fff"></rect><circle cx="412.28" cy="249.26" r="1.15" style="fill:#fff"></circle><circle cx="415.06" cy="249.26" r="1.15" style="fill:#fff"></circle><circle cx="417.84" cy="249.26" r="1.15" style="fill:#fff"></circle><rect x="393.85" y="254.36" width="26.34" height="6.58" style="fill:#2563EB"></rect><rect x="395.91" y="256.17" width="0.76" height="4.14" style="fill:#fff"></rect><rect x="398.84" y="256.17" width="0.76" height="4.14" style="fill:#fff"></rect><rect x="397.37" y="257.35" width="0.76" height="2.96" style="fill:#fff"></rect><circle cx="412.28" cy="257.84" r="1.15" style="fill:#fff"></circle><circle cx="415.06" cy="257.84" r="1.15" style="fill:#fff"></circle><circle cx="417.84" cy="257.84" r="1.15" style="fill:#fff"></circle><rect x="393.85" y="262.94" width="26.34" height="6.58" style="fill:#2563EB"></rect><rect x="395.91" y="264.75" width="0.76" height="4.14" style="fill:#fff"></rect><rect x="398.84" y="264.75" width="0.76" height="4.14" style="fill:#fff"></rect><rect x="397.37" y="265.93" width="0.76" height="2.96" style="fill:#fff"></rect><path d="M413.43,266.43a1.15,1.15,0,1,1-1.15-1.15A1.15,1.15,0,0,1,413.43,266.43Z" style="fill:#fff"></path><path d="M416.21,266.43a1.15,1.15,0,1,1-1.15-1.15A1.15,1.15,0,0,1,416.21,266.43Z" style="fill:#fff"></path><path d="M419,266.43a1.15,1.15,0,1,1-1.15-1.15A1.14,1.14,0,0,1,419,266.43Z" style="fill:#fff"></path><rect x="393.85" y="271.52" width="26.34" height="6.58" style="fill:#2563EB"></rect><rect x="395.91" y="273.33" width="0.76" height="4.14" style="fill:#fff"></rect><rect x="398.84" y="273.33" width="0.76" height="4.14" style="fill:#fff"></rect><rect x="397.37" y="274.51" width="0.76" height="2.96" style="fill:#fff"></rect><circle cx="412.28" cy="275.01" r="1.15" style="fill:#fff"></circle><circle cx="415.06" cy="275.01" r="1.15" style="fill:#fff"></circle><circle cx="417.84" cy="275.01" r="1.15" style="fill:#fff"></circle><path d="M410.82,286.59a3.55,3.55,0,1,1-3.55-3.56A3.55,3.55,0,0,1,410.82,286.59Z" style="fill:#263238"></path><rect x="375.21" y="228.1" width="83.14" height="83.14" rx="8.93" style="fill:none;stroke:#2563EB;stroke-miterlimit:10"></rect><rect x="375.21" y="228.1" width="83.14" height="83.14" rx="8.93" style="fill:none;stroke:#2563EB;stroke-miterlimit:10"></rect><path d="M328.24,292.7l-19.09,8.61.41.91,18.91-8.53A2.61,2.61,0,0,1,328.24,292.7Z" style="fill:#2563EB"></path><path d="M347.46,285.12l28.11-12.68-.41-.91L347.3,284.1A2.69,2.69,0,0,1,347.46,285.12Z" style="fill:#2563EB"></path><path d="M343.15,286l-11,5a2.2,2.2,0,0,1,.51.87l11.11-5A2.2,2.2,0,0,1,343.15,286Z" style="fill:#2563EB"></path></g><g id="freepik--Cloud--inject-312"><path d="M317.62,301.31H317a69.77,69.77,0,0,0-137.31-17.52,56.5,56.5,0,0,0,3.72,112.87H317.62a47.68,47.68,0,1,0,0-95.35Z" style="fill:#2563EB"></path><path d="M317.62,301.31H317a69.77,69.77,0,0,0-137.31-17.52,56.5,56.5,0,0,0,3.72,112.87H317.62a47.68,47.68,0,1,0,0-95.35Z" style="fill:#fff;opacity:0.30000000000000004"></path><path d="M257.6,350.43c-.92,7.48-14.17,13.41-14.17,13.41s-13.25-5.93-14.17-13.41L229,328l14.16-4.66L257.86,328Z" style="fill:#f5f5f5"></path><path d="M249,337.5v4.85a.79.79,0,0,1-1.58,0V337.5a2.84,2.84,0,0,0-2.84-2.83h-1.73A2.84,2.84,0,0,0,240,337.5v5H238.4v-5a4.43,4.43,0,0,1,4.42-4.42h1.73A4.43,4.43,0,0,1,249,337.5Z" style="fill:#2563EB"></path><path d="M249.49,342.17v9.44a1.08,1.08,0,0,1-1.08,1.08H239a1.09,1.09,0,0,1-1.08-1.08v-9.44a1.09,1.09,0,0,1,.51-.92,1.11,1.11,0,0,1,.57-.16h9.44a1.14,1.14,0,0,1,.56.15A1.1,1.1,0,0,1,249.49,342.17Z" style="fill:#2563EB"></path><g style="opacity:0.30000000000000004"><path d="M249,337.5v4.85a.79.79,0,0,1-1.58,0V337.5a2.84,2.84,0,0,0-2.84-2.83h-1.73A2.84,2.84,0,0,0,240,337.5v5H238.4v-5a4.43,4.43,0,0,1,4.42-4.42h1.73A4.43,4.43,0,0,1,249,337.5Z" style="fill:#fff"></path><path d="M249.49,342.17v9.44a1.08,1.08,0,0,1-1.08,1.08H239a1.09,1.09,0,0,1-1.08-1.08v-9.44a1.09,1.09,0,0,1,.51-.92,1.11,1.11,0,0,1,.57-.16h9.44a1.14,1.14,0,0,1,.56.15A1.1,1.1,0,0,1,249.49,342.17Z" style="fill:#fff"></path></g></g><g id="freepik--Character--inject-312"><path d="M207.35,294.16s-6.22,4.56-1.2,16.66c6.76,16.3,61.38,2.29,61.38,2.29-1.91,10.74,1,18.81,2.92,29.54l5.15,28.25-5.44.6,2.2,7.91h5.3l.56,6.66h0a2.27,2.27,0,0,0-2.09,2.53l1.2,6.22,1.14,1.28,24.16-3.73-16.91-6.31-5.58-88.53Z" style="opacity:0.2"></path><path d="M291.41,305.11h5s-1.51,3.39.4,18.38,8.22,34.17,8.22,34.17h-4.51l1.21,8.26h4.4v7h0a2.38,2.38,0,0,0-2.07,2.27l-.16,4.52,3.18,2,19.54-1.56,2.4-1.54-10.82-5.09-7.31-77.52-23.68,1.79Z" style="opacity:0.2"></path><g id="freepik--Character--inject-2--inject-312"><polygon points="311.05 374.72 319.61 373.79 320.41 353.68 311.85 354.62 311.05 374.72" style="fill:#ff8b7b"></polygon><path d="M320.47,370.18l-9.66-.09a.61.61,0,0,0-.68.54v.06l-.55,7.64a1.55,1.55,0,0,0,1.5,1.55c3.36,0,4.77-.2,9-.46,2.61-.16,8.85-.58,12.4-1.25s2.78-4.16,1.22-4.2c-3.71-.06-9.38-1.28-11.79-3.22A2.5,2.5,0,0,0,320.47,370.18Z" style="fill:#263238"></path><polygon points="311.85 354.63 320.41 353.68 320.02 363.37 311.47 364.02 311.85 354.63" style="opacity:0.2;isolation:isolate"></polygon><path d="M250.74,269.35s65.23-3.29,69.57,21a460.82,460.82,0,0,1,1.31,68.71l-11.68-.95s-9.86-38.81-8.91-59.53c-18-1.95-66.9,6.81-74.54-6.57-6.25-10.91-5.09-17.71-5.09-17.71Z" style="fill:#2563EB"></path><path d="M250.74,269.35s65.23-3.29,69.57,21a460.82,460.82,0,0,1,1.31,68.71l-11.68-.95s-9.86-38.81-8.91-59.53c-18-1.95-66.9,6.81-74.54-6.57-6.25-10.91-5.09-17.71-5.09-17.71Z" style="opacity:0.5"></path><polygon points="305.69 361.89 324.04 361.01 325.29 354.13 304.97 354.85 305.69 361.89" style="fill:#2563EB"></polygon><path d="M325.13,371.27a1.12,1.12,0,0,0,.26-1.08.77.77,0,0,0-.46-.57c-1.07-.44-3.5,1.22-3.78,1.4a.2.2,0,0,0-.08.13.19.19,0,0,0,.14.23,10.47,10.47,0,0,0,2.29.34A2.38,2.38,0,0,0,325.13,371.27Zm-.34-1.29a.33.33,0,0,1,.2.3.71.71,0,0,1-.14.71c-.41.39-1.54.44-3.08.11C322.77,370.48,324.21,369.77,324.79,370Z" style="fill:#2563EB"></path><path d="M321.39,371.34c.86-.51,2.17-2.28,2-3.23a.75.75,0,0,0-.71-.6,1,1,0,0,0-.89.29c-.87.83-.7,3.3-.7,3.4a.21.21,0,0,0,.11.17l.09,0Zm1.15-3.44c.29,0,.36.18.38.29.13.62-.74,2-1.49,2.59,0-.81.06-2.23.59-2.72a.54.54,0,0,1,.43-.17C322.5,367.91,322.53,367.92,322.54,367.9Z" style="fill:#2563EB"></path><polygon points="285.32 386.22 293.65 386 292.99 365.81 284.67 366.04 285.32 386.22" style="fill:#ff8b7b"></polygon><path d="M293.78,383.51l-9.64.63a.61.61,0,0,0-.61.62l0,7.66a1.52,1.52,0,0,0,1.61,1.43c3.35-.32,4.94-.58,9.18-.89,2.61-.17,7.76-.28,11.28-1.09s2.64-4.25,1.08-4.24c-3.7.06-8.87-2-11.42-3.74A2.38,2.38,0,0,0,293.78,383.51Z" style="fill:#263238"></path><path d="M298.51,384.24a1.12,1.12,0,0,0,.17-1.1.8.8,0,0,0-.5-.54c-1.08-.36-3.4,1.49-3.66,1.69a.21.21,0,0,0-.07.13.2.2,0,0,0,.16.23,11.17,11.17,0,0,0,2.31.15A2.31,2.31,0,0,0,298.51,384.24Zm-.45-1.25a.37.37,0,0,1,.24.27.72.72,0,0,1-.1.72c-.34.42-1.5.54-3.05.34C296.1,383.62,297.48,382.81,298.06,383Z" style="fill:#2563EB"></path><path d="M294.81,384.64c.82-.57,2-2.49,1.72-3.37a.75.75,0,0,0-.77-.55,1,1,0,0,0-.87.33c-.81.89-.45,3.35-.44,3.46a.2.2,0,0,0,.12.15h.09A.26.26,0,0,0,294.81,384.64Zm.89-3.57c.29,0,.38.16.4.27.17.61-.59,2-1.3,2.7-.07-.8-.1-2.21.39-2.74a.55.55,0,0,1,.41-.21Z" style="fill:#2563EB"></path><polygon points="283.92 365.85 293.22 364.28 293.31 376.89 285.16 377.85 283.92 365.85" style="opacity:0.2;isolation:isolate"></polygon><path d="M230,272.84s64.42,4.74,65.3,23.45c4.77,30.58,1.23,70.83,1.23,70.83l-15.42,3.23s-8-37.66-9.14-65.36c-15.76,2.65-48.19,7.58-59.31-.3-10.1-9.06-7.31-27.65-7.31-27.65Z" style="fill:#2563EB"></path><path d="M230,272.84s64.42,4.74,65.3,23.45c4.77,30.58,1.23,70.83,1.23,70.83l-15.42,3.23s-8-37.66-9.14-65.36c-15.76,2.65-48.19,7.58-59.31-.3-10.1-9.06-7.31-27.65-7.31-27.65Z" style="opacity:0.4"></path><polygon points="279.65 375.43 298.5 373.82 298.89 365.58 278.22 367.74 279.65 375.43" style="fill:#2563EB"></polygon><path d="M234.49,216.84c.37,1.47.7,2.74,1.1,4.08s.79,2.6,1.24,3.94c.86,2.59,1.84,5.16,2.92,7.77a64,64,0,0,0,8.56,15.15,28.48,28.48,0,0,0,3.42,3.61,18.91,18.91,0,0,0,4.65,3.06,20.36,20.36,0,0,0,10.36,1.66,28.86,28.86,0,0,0,9-2.43,36,36,0,0,0,3.9-2,16.63,16.63,0,0,0,1.83-1.22c.58-.45,1.14-.84,1.82-1.36l-3.33-5.53-1.66.49-1.74.48c-1.17.3-2.33.56-3.52.76a24.9,24.9,0,0,1-6.51.34,10.67,10.67,0,0,1-4.9-1.59,10.33,10.33,0,0,1-1.76-1.47,20.9,20.9,0,0,1-1.82-2.28,41.47,41.47,0,0,1-3.36-5.91c-1-2.13-2-4.38-2.87-6.69s-1.7-4.66-2.51-7l-1.14-3.58c-.36-1.18-.76-2.44-1-3.46Z" style="fill:#ff8b7b"></path><path d="M233.22,209.63c5.19-7.06,13.49-4.8,18.46,6a104.73,104.73,0,0,1,6.66,17.88l-19,7.4C233.9,230.72,227.89,216.87,233.22,209.63Z" style="fill:#2563EB"></path><path d="M233.22,209.63c5.19-7.06,13.49-4.8,18.46,6a104.73,104.73,0,0,1,6.66,17.88l-19,7.4C233.9,230.72,227.89,216.87,233.22,209.63Z" style="opacity:0.1"></path><path d="M241.65,220.87c-1.62-1-4.67,5.34-5.93,12.78,1.14,2.54,2.36,5,3.57,7.23l11.46-4.46C248.62,229.57,245.29,223.19,241.65,220.87Z" style="opacity:0.30000000000000004;isolation:isolate"></path><path d="M280.82,240.66l4.14-2.43,1.78,9.36s-6.9,4.47-9,1l.14-2.44A7.75,7.75,0,0,1,280.82,240.66Z" style="fill:#ff8b7b"></path><polygon points="290.23 237.59 294.17 245.03 286.7 247.6 284.92 238.23 290.23 237.59" style="fill:#ff8b7b"></polygon><path d="M232.94,203.48,223,202.41l-12.24,1.49a8.53,8.53,0,0,0-7.44,7.22c-1.11,7.48-1.51,18-1.59,27.13-.1,10.21,1.52,25.25,3.62,38.79l45.37-7.64c-3.72-28.39-2.95-45.67-2.92-55.16a8.52,8.52,0,0,0-6.2-8.24Z" style="fill:#2563EB"></path><path d="M207.23,207.62c8.14-1.71,8.34,16.89,5.06,30.61-.94,4-5.66,2.47-7.27,1.5C199.76,236.54,197.26,213.89,207.23,207.62Z" style="opacity:0.30000000000000004;isolation:isolate"></path><path d="M208.78,232.59c-1.54,7.9-5,11.41-1.43,15s26.3,17.55,27.14,16.67c-1.64,1.61-3.17,3-4.81,4.56q-10.27-4.09-20.64-8c-5-1.88-13.11-5.18-16.41-9.43-3-3.84-.31-12,2.52-21.29C198.93,229,208.78,232.59,208.78,232.59Z" style="fill:#ff8b7b"></path><path d="M204,204.44c8.34-2.74,11.74,3.89,9.56,15.53a104.73,104.73,0,0,1-4.93,18.44l-17.77-5C192.34,222,195.43,207.25,204,204.44Z" style="fill:#2563EB"></path><polygon points="230.17 217.25 230.5 257.82 236.69 263.12 240.41 257.19 232.66 217.25 230.17 217.25" style="fill:#263238"></polygon><polygon points="230.19 217.25 232.66 217.25 233.84 215.06 232.24 214.17 230.5 214.02 228.65 215.06 230.19 217.25" style="fill:#263238"></polygon><path d="M216.14,204a7.2,7.2,0,0,0,1.44,5,21.18,21.18,0,0,0,3.73,3.78c1.72,1.47,3.75,3,6,2.67,2.05-.34,3.21-1.42,4-3.91,1.86,2.79,2,4.21,3.94,4.32,1.26.08,2.33-.88,3.19-1.81,1.5-1.66,2.17-2.6,2.38-4.83.35-3.62-2.69-6.87-6.14-8a42.77,42.77,0,0,0-10.79-1.77C220.64,199.15,216.66,200.27,216.14,204Z" style="fill:#263238"></path><path d="M224.18,186.38l4.62,5,6.28,6.8a7.72,7.72,0,0,0-1.16,2.52,4.29,4.29,0,0,0,1.86,5.31c.94.4,1.56,5.21-4.53,4.91a12.7,12.7,0,0,1-9.32-3.88c-1.17-1.46-1.48-2.26-.39-3.93C224.68,198.39,224.72,191.69,224.18,186.38Z" style="fill:#ff8b7b"></path><path d="M233.57,196.49l-4-4.93c-.05.16-.09.32-.14.49a14.67,14.67,0,0,0-.31,2.18c-.15,2.52,2.31,5.65,4.65,7l.16-.51a10.3,10.3,0,0,1,1.05-2.41.52.52,0,0,1,.11-.1Z" style="opacity:0.2;isolation:isolate"></path><path d="M239.09,184.84c3.69-7.17,2.89-11.23,6.44-15.06,1.9-.84,5.23,2.66,3,8.64S239.09,184.84,239.09,184.84Z" style="fill:#263238"></path><path d="M224.28,176.9c-.42,8.32-1,13.17,2.69,17.76,5.62,7,16.25,4.09,19.11-4,2.59-7.27,2.77-19.65-5-23.67a11.56,11.56,0,0,0-16.81,9.9Z" style="fill:#ff8b7b"></path><path d="M223.3,184.29l4.51,2.68.57-7.29,3.69-2.11,4.5-6.75s-9.76-2.85-12.67-3.24c-1-.13-4.59,2.64-5.12,3.81a9.56,9.56,0,0,0,1.58,9.94A20.56,20.56,0,0,0,223.3,184.29Z" style="fill:#263238"></path><path d="M220.21,182.89a7.59,7.59,0,0,0,2.53,4.77c1.83,1.56,3.94-.28,4.11-2.64.15-2.11-1-5.15-3.18-5.78S219.93,180.59,220.21,182.89Z" style="fill:#ff8b7b"></path><path d="M236.89,181.47c-.1.68.17,1.31.62,1.39s.84-.4,1-1.08a1.12,1.12,0,0,0-.62-1.4C237.43,180.3,237,180.78,236.89,181.47Z" style="fill:#263238"></path><path d="M244.6,182.9c-.11.7.17,1.32.62,1.4s.89-.4,1-1.08-.17-1.31-.61-1.39S244.71,182.22,244.6,182.9Z" style="fill:#263238"></path><path d="M242.05,183a22.47,22.47,0,0,0,1.64,5.63,3.32,3.32,0,0,1-2.84-.18Z" style="fill:#ff5652"></path><path d="M239.63,192.31a5.93,5.93,0,0,1-4-2.47.21.21,0,0,1,.06-.28.21.21,0,0,1,.29.07,5.69,5.69,0,0,0,4.45,2.36.21.21,0,0,1,.21.2.19.19,0,0,1-.19.21h0A5.58,5.58,0,0,1,239.63,192.31Z" style="fill:#263238"></path><path d="M235.75,178.77a.45.45,0,0,1-.17-.11.41.41,0,0,1,0-.58,3.87,3.87,0,0,1,3.54-1,.4.4,0,0,1,.29.49v0a.41.41,0,0,1-.51.27,3.13,3.13,0,0,0-2.77.8A.41.41,0,0,1,235.75,178.77Z" style="fill:#263238"></path><path d="M245.33,178.46a.45.45,0,0,1,0-.2.41.41,0,0,1,.5-.3,3.85,3.85,0,0,1,2.82,2.35.41.41,0,0,1-.25.52.42.42,0,0,1-.52-.25,3.11,3.11,0,0,0-2.23-1.83A.39.39,0,0,1,245.33,178.46Z" style="fill:#263238"></path></g><path d="M248.2,276.81l52.13-6.88a1,1,0,0,0,.85-1.11h0a1,1,0,0,0-1.11-.85l-52.13,6.88a1,1,0,0,0-.85,1.1h0A1,1,0,0,0,248.2,276.81Z" style="fill:#2563EB"></path><path d="M248.2,276.81l52.13-6.88a1,1,0,0,0,.85-1.11h0a1,1,0,0,0-1.11-.85l-52.13,6.88a1,1,0,0,0-.85,1.1h0A1,1,0,0,0,248.2,276.81Z" style="opacity:0.5"></path><path d="M222.5,276.54l25.3.28a1,1,0,0,0,1-1h0a1,1,0,0,0-1-1l-25.3-.28a1,1,0,0,0-1,1h0A1,1,0,0,0,222.5,276.54Z" style="fill:#2563EB"></path><path d="M222.5,276.54l25.3.28a1,1,0,0,0,1-1h0a1,1,0,0,0-1-1l-25.3-.28a1,1,0,0,0-1,1h0A1,1,0,0,0,222.5,276.54Z" style="fill:#fff;opacity:0.5"></path><path d="M249.37,275.65l-27.85-.18s-.93-.55.94-.91,26-3.58,26-3.58Z" style="fill:#2563EB"></path><path d="M249.37,275.65l-27.19-.26s-.93-.56.94-.92S248.5,271,248.5,271Z" style="fill:#2563EB"></path><path d="M249.37,275.65l-27.19-.26s-.93-.56.94-.92S248.5,271,248.5,271Z" style="fill:#fff;opacity:0.2"></path><path d="M249.36,274.66,298,268.25a3.51,3.51,0,0,0,3-3.57l-1.09-24.9A2.84,2.84,0,0,0,296.6,237L248,243.45a3.52,3.52,0,0,0-3,3.57l1.09,24.9A2.84,2.84,0,0,0,249.36,274.66Z" style="fill:#2563EB"></path><path d="M249.36,274.66,298,268.25a3.51,3.51,0,0,0,3-3.57l-1.09-24.9A2.84,2.84,0,0,0,296.6,237L248,243.45a3.52,3.52,0,0,0-3,3.57l1.09,24.9A2.84,2.84,0,0,0,249.36,274.66Z" style="opacity:0.4"></path><path d="M250.78,274.36,299.39,268a3.51,3.51,0,0,0,3-3.56l-1.09-24.9a2.85,2.85,0,0,0-3.26-2.75l-48.61,6.41a3.52,3.52,0,0,0-3,3.57l1.09,24.9A2.83,2.83,0,0,0,250.78,274.36Z" style="fill:#2563EB"></path><path d="M250.78,274.36,299.39,268a3.51,3.51,0,0,0,3-3.56l-1.09-24.9a2.85,2.85,0,0,0-3.26-2.75l-48.61,6.41a3.52,3.52,0,0,0-3,3.57l1.09,24.9A2.83,2.83,0,0,0,250.78,274.36Z" style="fill:#fff;opacity:0.7000000000000001"></path><path d="M279.06,257.06a4.68,4.68,0,0,1-4.59,4.29,4,4,0,0,1-4-4.29,4.68,4.68,0,0,1,4.59-4.3A4,4,0,0,1,279.06,257.06Z" style="fill:#2563EB"></path><path d="M237.38,263.84l4.15.52-4.26,8.92s-8.81-1.58-7.72-5.48l1.89-1.54C233.05,264.92,235.14,263.47,237.38,263.84Z" style="fill:#ff8b7b"></path><polygon points="245.95 269.26 242.66 273.88 237.26 273.27 241.53 264.36 245.95 269.26" style="fill:#ff8b7b"></polygon><path d="M218.35,170.61a15.52,15.52,0,0,1-1.78-4.3,5.22,5.22,0,0,1,1-4.41,7.78,7.78,0,0,1,4.1-2l15.29-3.88c2.11-.54,4.35-1.07,6.42-.41,3.64,1.16,5.92,2.73,7,6.39.7,2.42.6,7.95-1.09,9.82-1.28,1.43-3.41,1.64-5.32,1.72a119.2,119.2,0,0,1-25.1-1.69Z" style="fill:#2563EB"></path><path d="M227.29,172.93c-.06.53.07-.53,0,0,2.41-3.27,7.78-6,10.17-6.35a15.33,15.33,0,0,1,11.24,2.81,12.91,12.91,0,0,1,5.15,10.24c0,.93-.38,2.11-1.31,2.19s-1.29-1.74-1.79-2.42c-1.69-2.28-5.19-2.19-7.74-1-1.34.65-2.67,1.83-4.1,1.43C237.93,179.61,227.29,172.93,227.29,172.93Z" style="fill:#263238"></path><polygon points="214.96 222.21 227.67 222.21 227.67 225.55 222.38 228.3 215.32 226.21 214.96 222.21" style="fill:#263238"></polygon><polygon points="237.34 222.21 248.08 222.21 248.08 225.55 243.61 228.3 237.65 226.21 237.34 222.21" style="fill:#263238"></polygon><path d="M281.24,196a3.11,3.11,0,0,1-1.78.92,5.52,5.52,0,0,1-4-1.52,6,6,0,0,1-.3.76l-2.6-2.45-2.6-2.45a6.18,6.18,0,0,1,.74-.35c-1.36-1.43-2.49-3.6-1.15-5.44l.23-.28a.28.28,0,0,1,.27-.1.31.31,0,0,1,.18.52c-1.51,1.69-.1,3.85,1.2,5.1a3.88,3.88,0,0,1,2.3.16,0,0,0,0,1,0,0c.93-1.25,1.17-2.63.05-3.69a4.27,4.27,0,0,0-1.51-.92c-.1,0-.06-.19,0-.15a4.12,4.12,0,0,1,1.89,1.28c.89,1.11.49,2.43-.35,3.57l.12.05a1,1,0,0,1,.81-.52v.92l.92-.06a1,1,0,0,1-.48.83l.06.11c1.09-.89,2.4-1.36,3.57-.54a4.29,4.29,0,0,1,1.39,1.81c0,.1-.12.14-.16.05a4.28,4.28,0,0,0-1-1.45c-1.12-1.05-2.5-.74-3.71.25h0a4,4,0,0,1,.29,2.28c1.12,1,2.92,2.12,4.43,1.43a2.74,2.74,0,0,0,.75-.52C281.09,195.26,281.54,195.69,281.24,196Z" style="fill:#263238"></path><path d="M272.53,193.69l-3.26-3.07a7.42,7.42,0,0,0-.86.56c-2.08-.18-4.55.31-5.19,2.61-.11.4.5.52.62.12.47-1.71,2.24-2.16,3.86-2.13l-.28.27c-2.35,2.47-2.68,5.94-.74,7.77s5.42,1.31,7.76-1.15l.34-.39c.16,1.66-.16,3.54-1.91,4.13-.4.13-.24.74.15.61,2.35-.79,2.65-3.4,2.31-5.49a6.06,6.06,0,0,0,.45-.78Z" style="fill:#263238"></path><polygon points="288.07 210.36 283.65 210.36 284.35 205.94 288.77 205.94 288.07 210.36" style="fill:#263238"></polygon><path d="M293.29,209.76a2.23,2.23,0,0,1-.67,1.24,2.18,2.18,0,0,1-1.51.64H280a1.63,1.63,0,0,1-1-.35,1.59,1.59,0,0,1-.55-1.53s5.2-1.61,5.83-1.61h3.94Z" style="fill:#263238"></path><path d="M294.49,199.54l0,.19a1.22,1.22,0,0,1-1.19,1H281.53a1,1,0,0,1-.78-.34,1,1,0,0,1-.25-.87h3.07a5.6,5.6,0,0,1,4.62-3.2,3.75,3.75,0,0,1,3.62,3.2Z" style="fill:#263238"></path><path d="M283.05,200.75a6.66,6.66,0,0,0-.27,1.11,5,5,0,0,0,1.47,4.74,3.38,3.38,0,0,0,2.2.78,4.29,4.29,0,0,0,2.19-.63,6.94,6.94,0,0,0,3.22-4.89,7.21,7.21,0,0,0,.09-1.11Zm6.15,1.91-2-.93-2,.93L284,201.21l3.14.49,3.14-.49Z" style="fill:#263238"></path><path d="M269.75,185.17l-.23.28.5-.38A.28.28,0,0,0,269.75,185.17Z" style="fill:#2563EB"></path><path d="M281.32,178.23a23.07,23.07,0,0,0-22.63,21.15,19.47,19.47,0,0,0,12.42,19.83l.12,0a20.29,20.29,0,0,0,3.75,1h0c.4.07.8.12,1.21.16.71.07,1.43.11,2.16.11A23.07,23.07,0,0,0,301,199.38,19.49,19.49,0,0,0,281.32,178.23Zm-19.43,21.15a19.37,19.37,0,0,1,7.63-13.93l.23-.28a.28.28,0,0,1,.27-.1,18.91,18.91,0,0,1,11.07-3.64,17,17,0,0,1,8,2L280,196.08a2.74,2.74,0,0,0,.75-.52c.3-.3.75.13.45.42a3.11,3.11,0,0,1-1.78.92l-11.79,16.51A16.66,16.66,0,0,1,261.89,199.38Zm35.9,0a19.58,19.58,0,0,1-19.21,18,16.88,16.88,0,0,1-8.36-2.16l10.53-14.76a1,1,0,0,1-.25-.87h.87l10.32-14.45A16.66,16.66,0,0,1,297.79,199.38Z" style="fill:#2563EB"></path><path d="M269.75,185.17l-.23.28.5-.38A.28.28,0,0,0,269.75,185.17Z" style="fill:#2563EB"></path><path d="M281.32,178.23a23.07,23.07,0,0,0-22.63,21.15,19.47,19.47,0,0,0,12.42,19.83l.12,0a20.29,20.29,0,0,0,3.75,1h0c.4.07.8.12,1.21.16.71.07,1.43.11,2.16.11A23.07,23.07,0,0,0,301,199.38,19.49,19.49,0,0,0,281.32,178.23Zm-19.43,21.15a19.37,19.37,0,0,1,7.63-13.93l.23-.28a.28.28,0,0,1,.27-.1,18.91,18.91,0,0,1,11.07-3.64,17,17,0,0,1,8,2L280,196.08a2.74,2.74,0,0,0,.75-.52c.3-.3.75.13.45.42a3.11,3.11,0,0,1-1.78.92l-11.79,16.51A16.66,16.66,0,0,1,261.89,199.38Zm35.9,0a19.58,19.58,0,0,1-19.21,18,16.88,16.88,0,0,1-8.36-2.16l10.53-14.76a1,1,0,0,1-.25-.87h.87l10.32-14.45A16.66,16.66,0,0,1,297.79,199.38Z" style="fill:#fff;opacity:0.30000000000000004"></path><path d="M276.58,218l-6.12,8.55,1-9.76A19.82,19.82,0,0,0,276.58,218Z" style="fill:#2563EB"></path><path d="M276.58,218l-6.12,8.55,1-9.76A19.82,19.82,0,0,0,276.58,218Z" style="fill:#fff;opacity:0.30000000000000004"></path><polygon points="288.22 201.71 288.17 201.73 288.12 201.71 288.17 201.7 288.22 201.71" style="fill:#f0f0f0"></polygon></g></svg>