<svg xmlns="http://www.w3.org/2000/svg" xmlns:xlink="http://www.w3.org/1999/xlink" viewBox="0 0 500 500"><defs><clipPath id="freepik--clip-path--inject-219"><path d="M289.19,385.13H210.81l10.51-1.83a8.36,8.36,0,0,0,6.93-8.23V347.85h43.5v27.22a8.36,8.36,0,0,0,6.93,8.23Z" style="fill:#fff;stroke:#263238;stroke-linecap:round;stroke-linejoin:round"></path></clipPath></defs><g id="freepik--background-simple--inject-219"><path d="M434.11,390.74l-.43.62c-39.42,57.11-105.58,75-165.69,37.91-31.33-19.33-75.1-3.79-109.42-5.31C40.22,418.71,23.62,263.78,61.07,178.07,94.87,100.73,198.39,60.45,278,75.62,347.92,89,407.49,141.72,439.09,204.2c3.16,6.26,6.07,12.66,8.67,19.18C469.5,277.8,467.75,341.49,434.11,390.74Z" style="fill:#073763"></path><path d="M434.11,390.74l-.43.62c-39.42,57.11-105.58,75-165.69,37.91-31.33-19.33-75.1-3.79-109.42-5.31C40.22,418.71,23.62,263.78,61.07,178.07,94.87,100.73,198.39,60.45,278,75.62,347.92,89,407.49,141.72,439.09,204.2c3.16,6.26,6.07,12.66,8.67,19.18C469.5,277.8,467.75,341.49,434.11,390.74Z" style="fill:#fff;opacity:0.7000000000000001"></path></g><g id="freepik--Lines--inject-219"><line x1="250" y1="231" x2="250" y2="228" style="fill:none;stroke:#263238;stroke-linecap:round;stroke-linejoin:round"></line><line x1="250" y1="222.41" x2="250" y2="146.96" style="fill:none;stroke:#263238;stroke-linecap:round;stroke-linejoin:round;stroke-dasharray:5.5887298583984375,5.5887298583984375"></line><line x1="250" y1="144.17" x2="250" y2="141.17" style="fill:none;stroke:#263238;stroke-linecap:round;stroke-linejoin:round"></line><path d="M268.27,231V198.83a18.89,18.89,0,0,1,18.89-18.89h86.57" style="fill:none;stroke:#263238;stroke-linecap:round;stroke-linejoin:round;stroke-dasharray:6"></path><path d="M231.73,231V198.83a18.89,18.89,0,0,0-18.89-18.89H126.27" style="fill:none;stroke:#263238;stroke-linecap:round;stroke-linejoin:round;stroke-dasharray:6"></path><path d="M252.8,136.16a2.8,2.8,0,1,1-2.8-2.8A2.8,2.8,0,0,1,252.8,136.16Z" style="fill:none;stroke:#263238;stroke-linecap:round;stroke-linejoin:round"></path><path d="M381.8,179.94a2.8,2.8,0,1,1-2.8-2.8A2.8,2.8,0,0,1,381.8,179.94Z" style="fill:none;stroke:#263238;stroke-linecap:round;stroke-linejoin:round"></path><path d="M123.8,179.94a2.8,2.8,0,1,1-2.8-2.8A2.8,2.8,0,0,1,123.8,179.94Z" style="fill:none;stroke:#263238;stroke-linecap:round;stroke-linejoin:round"></path></g><g id="freepik--device-4--inject-219"><path d="M423.54,140.66v-22a3.06,3.06,0,0,0-3.06-3H402.07a3.06,3.06,0,0,0-3.06,3v22a13.53,13.53,0,0,1-1.62,6.41h0v2.08h27.77v-2.08h0A13.41,13.41,0,0,1,423.54,140.66Z" style="fill:#757575;stroke:#263238;stroke-linecap:round;stroke-linejoin:round"></path><line x1="401.09" y1="137.06" x2="421.46" y2="137.06" style="fill:none;stroke:#263238;stroke-linecap:round;stroke-linejoin:round"></line><line x1="401.09" y1="122.25" x2="421.46" y2="122.25" style="fill:none;stroke:#263238;stroke-linecap:round;stroke-linejoin:round"></line><path d="M399,218.12v22a3.06,3.06,0,0,0,3.06,3.06h18.41a3.06,3.06,0,0,0,3.06-3.06v-22a13.41,13.41,0,0,1,1.62-6.41h0v-2.07H397.39v2.07h0A13.53,13.53,0,0,1,399,218.12Z" style="fill:#757575;stroke:#263238;stroke-linecap:round;stroke-linejoin:round"></path><line x1="421.46" y1="221.72" x2="401.09" y2="221.72" style="fill:none;stroke:#263238;stroke-linecap:round;stroke-linejoin:round"></line><line x1="421.46" y1="236.53" x2="401.09" y2="236.53" style="fill:none;stroke:#263238;stroke-linecap:round;stroke-linejoin:round"></line><path d="M429.8,174.84h4.25a2.47,2.47,0,0,1,2.47,2.47v4.15a2.47,2.47,0,0,1-2.47,2.47H429.8a0,0,0,0,1,0,0v-9.1A0,0,0,0,1,429.8,174.84Z" style="fill:#757575;stroke:#263238;stroke-linecap:round;stroke-linejoin:round"></path><rect x="390.5" y="148.65" width="41.54" height="61.49" rx="9.74" style="fill:#073763;stroke:#263238;stroke-linecap:round;stroke-linejoin:round"></rect><rect x="393.47" y="154.37" width="35.6" height="50.04" rx="6.18" style="fill:#263238"></rect><path d="M412.41,188.51a11.61,11.61,0,0,1-4.77-22.58" style="fill:none;stroke:#073763;stroke-linecap:round;stroke-linejoin:round"></path><path d="M410.14,165.4A11.62,11.62,0,0,1,414.91,188" style="fill:none;stroke:#073763;stroke-linecap:round;stroke-linejoin:round"></path><polyline points="411.27 166.7 409.93 165.35 411.27 164" style="fill:none;stroke:#073763;stroke-linecap:round;stroke-linejoin:round"></polyline><polyline points="411.27 187.22 412.62 188.57 411.27 189.92" style="fill:none;stroke:#073763;stroke-linecap:round;stroke-linejoin:round"></polyline><path d="M406.55,174c.85,0,1.28.5,1.28,1.38v.17H407v-.22c0-.4-.16-.55-.43-.55s-.44.15-.44.55.18.7.74,1.19a2.14,2.14,0,0,1,1,1.73,1.2,1.2,0,0,1-1.3,1.38c-.85,0-1.29-.5-1.29-1.38v-.34h.82v.39c0,.4.18.54.45.54s.45-.14.45-.54-.17-.7-.74-1.19a2.16,2.16,0,0,1-1-1.73C405.28,174.53,405.71,174,406.55,174Z" style="fill:#073763"></path><path d="M409.09,177.77l-1.1-3.68h.91l.65,2.51h0l.65-2.51h.83l-1.1,3.68v1.83h-.86Z" style="fill:#073763"></path><path d="M412.18,175.61h0v4h-.78v-5.51h1.09l.88,3.3h0v-3.3h.77v5.51h-.89Z" style="fill:#073763"></path><path d="M417.26,177.54v.74c0,.88-.44,1.38-1.29,1.38s-1.29-.5-1.29-1.38v-2.87c0-.88.44-1.38,1.29-1.38s1.29.5,1.29,1.38V176h-.81v-.59c0-.4-.18-.55-.45-.55s-.45.15-.45.55v3c0,.4.17.54.45.54s.45-.14.45-.54v-.79Z" style="fill:#073763"></path><path d="M423.09,194.78H399.46a1,1,0,0,1-1-1.05h0a1,1,0,0,1,1-1h23.63a1,1,0,0,1,1.05,1h0A1,1,0,0,1,423.09,194.78Z" style="fill:#073763;stroke:#263238;stroke-linecap:round;stroke-linejoin:round"></path><path d="M416,194.78H399.46a1,1,0,0,1-1-1.05h0a1,1,0,0,1,1-1H416a1,1,0,0,1,1.05,1h0A1,1,0,0,1,416,194.78Z" style="fill:#fff;stroke:#263238;stroke-linecap:round;stroke-linejoin:round"></path></g><g id="freepik--device-3--inject-219"><path d="M190,44.76H310a3.62,3.62,0,0,1,3.62,3.62v74a0,0,0,0,1,0,0H186.34a0,0,0,0,1,0,0v-74A3.62,3.62,0,0,1,190,44.76Z" style="fill:#263238"></path><rect x="187.75" y="48.16" width="124.5" height="69" style="fill:#fff"></rect><rect x="187.75" y="48.16" width="124.5" height="69" style="fill:#073763;opacity:0.5"></rect><path d="M313.66,128.83H186.34c-4.3,0-17.1-1.82-17.1-1.82H330.76S318,128.83,313.66,128.83Z" style="fill:#999;stroke:#263238;stroke-linecap:round;stroke-linejoin:round"></path><path d="M330.76,127H169.24a.5.5,0,0,1-.1-1l17.2-3.68H313.66l17.2,3.68A.5.5,0,0,1,330.76,127Z" style="fill:#bfbfbf;stroke:#263238;stroke-linecap:round;stroke-linejoin:round"></path><path d="M252.75,120.15h-5.5a.63.63,0,0,1-.63-.63h0a.63.63,0,0,1,.63-.63h5.5a.63.63,0,0,1,.63.63h0A.63.63,0,0,1,252.75,120.15Z" style="fill:#fff"></path><circle cx="250" cy="46.38" r="0.91" style="fill:#fff"></circle><polygon points="320.74 124.68 179.26 124.68 186.69 122.93 313.31 122.93 320.74 124.68" style="fill:none;stroke:#263238;stroke-linecap:round;stroke-linejoin:round"></polygon><rect x="188.73" y="48.68" width="122.54" height="2.38" style="fill:#fff;opacity:0.7000000000000001"></rect><line x1="188.73" y1="51.05" x2="311.27" y2="51.05" style="fill:none;stroke:#263238;stroke-linecap:round;stroke-linejoin:round"></line><circle cx="250" cy="79.4" r="17.7" style="fill:#fff;opacity:0.7000000000000001"></circle><path d="M251.92,99a19.74,19.74,0,0,1-8.1-38.39" style="fill:none;stroke:#263238;stroke-linecap:round;stroke-linejoin:round"></path><path d="M248.08,59.75a19.74,19.74,0,0,1,8.1,38.39" style="fill:none;stroke:#263238;stroke-linecap:round;stroke-linejoin:round"></path><polyline points="250 61.95 247.71 59.66 250 57.37" style="fill:none;stroke:#263238;stroke-linecap:round;stroke-linejoin:round"></polyline><polyline points="250 96.85 252.29 99.14 250 101.43" style="fill:none;stroke:#263238;stroke-linecap:round;stroke-linejoin:round"></polyline><path d="M242,74.41c1.43,0,2.17.86,2.17,2.36v.29h-1.39v-.39c0-.66-.27-.92-.74-.92s-.73.26-.73.92.29,1.2,1.25,2c1.23,1.08,1.62,1.86,1.62,2.93,0,1.5-.75,2.35-2.19,2.35a2,2,0,0,1-2.2-2.35v-.58h1.4v.67c0,.67.29.91.76.91s.76-.24.76-.91-.29-1.19-1.26-2c-1.23-1.08-1.62-1.86-1.62-2.93C239.8,75.27,240.54,74.41,242,74.41Z" style="fill:#263238"></path><path d="M246.28,80.78l-1.86-6.26H246l1.11,4.27h0l1.11-4.27h1.4l-1.86,6.26v3.11h-1.47Z" style="fill:#263238"></path><path d="M251.54,77.1h0v6.79h-1.32V74.52H252l1.49,5.61h0V74.52h1.31v9.37h-1.51Z" style="fill:#263238"></path><path d="M260.18,80.4v1.24c0,1.5-.75,2.35-2.19,2.35a2,2,0,0,1-2.2-2.35V76.77c0-1.5.75-2.36,2.2-2.36s2.19.86,2.19,2.36v.91h-1.39v-1c0-.66-.29-.92-.76-.92s-.76.26-.76.92v5.06c0,.67.29.91.76.91s.76-.24.76-.91V80.4Z" style="fill:#263238"></path><path d="M284.59,109.15H215.41a1.78,1.78,0,0,1-1.78-1.78h0a1.78,1.78,0,0,1,1.78-1.78h69.18a1.78,1.78,0,0,1,1.78,1.78h0A1.78,1.78,0,0,1,284.59,109.15Z" style="fill:#fff;stroke:#263238;stroke-linecap:round;stroke-linejoin:round"></path><path d="M264.59,109.15H215.41a1.78,1.78,0,0,1-1.78-1.78h0a1.78,1.78,0,0,1,1.78-1.78h49.18a1.78,1.78,0,0,1,1.78,1.78h0A1.78,1.78,0,0,1,264.59,109.15Z" style="fill:#073763;stroke:#263238;stroke-linecap:round;stroke-linejoin:round"></path></g><g id="freepik--device-1--inject-219"><rect x="50.45" y="129.35" width="58.95" height="100.09" rx="3.96" style="fill:#263238"></rect><path d="M91,137.22h0a1.56,1.56,0,0,1-1.53,1.23H70.37a1.57,1.57,0,0,1-1.53-1.23h0A1.56,1.56,0,0,0,67.31,136H53.75a1.58,1.58,0,0,0-1.57,1.57v82a1.57,1.57,0,0,0,1.57,1.57h52.33a1.57,1.57,0,0,0,1.57-1.57v-82a1.57,1.57,0,0,0-1.57-1.57H92.53A1.57,1.57,0,0,0,91,137.22Z" style="fill:#073763;stroke:#263238;stroke-linecap:round;stroke-linejoin:round"></path><path d="M76.61,135.14a1.08,1.08,0,1,1-1.08-1.09A1.09,1.09,0,0,1,76.61,135.14Z" style="fill:#fff"></path><path d="M85.39,135.14a.54.54,0,1,1-.54-.55A.54.54,0,0,1,85.39,135.14Z" style="fill:#fff"></path><rect x="77.35" y="134.72" width="5.67" height="0.83" style="fill:#fff"></rect><path d="M81.84,190.32a19.74,19.74,0,0,1-8.1-38.39" style="fill:none;stroke:#fff;stroke-linecap:round;stroke-linejoin:round"></path><path d="M78,151a19.74,19.74,0,0,1,8.1,38.39" style="fill:none;stroke:#fff;stroke-linecap:round;stroke-linejoin:round"></path><polyline points="79.92 153.24 77.63 150.94 79.92 148.65" style="fill:none;stroke:#fff;stroke-linecap:round;stroke-linejoin:round"></polyline><polyline points="79.92 188.13 82.21 190.42 79.92 192.71" style="fill:none;stroke:#fff;stroke-linecap:round;stroke-linejoin:round"></polyline><path d="M71.89,165.7c1.43,0,2.17.85,2.17,2.35v.3H72.67V168c0-.67-.27-.92-.74-.92s-.74.25-.74.92.3,1.19,1.26,2c1.23,1.09,1.62,1.86,1.62,2.93,0,1.5-.75,2.36-2.19,2.36s-2.2-.86-2.2-2.36v-.57h1.39V173c0,.67.3.91.77.91s.76-.24.76-.91-.29-1.19-1.26-2c-1.23-1.08-1.62-1.86-1.62-2.93C69.72,166.55,70.46,165.7,71.89,165.7Z" style="fill:#fff"></path><path d="M76.2,172.07l-1.86-6.27h1.54L77,170.07h0l1.11-4.27h1.4l-1.86,6.27v3.1H76.2Z" style="fill:#fff"></path><path d="M81.46,168.39h0v6.78H80.11V165.8H82l1.49,5.61h0V165.8h1.31v9.37H83.26Z" style="fill:#fff"></path><path d="M90.1,171.68v1.24c0,1.5-.75,2.36-2.19,2.36s-2.2-.86-2.2-2.36v-4.87a2,2,0,0,1,2.2-2.35c1.44,0,2.19.85,2.19,2.35V169H88.71v-1c0-.67-.29-.92-.76-.92s-.76.25-.76.92V173c0,.67.29.91.76.91s.76-.24.76-.91v-1.34Z" style="fill:#fff"></path><path d="M100,201H59.83a1.78,1.78,0,0,1-1.78-1.78h0a1.78,1.78,0,0,1,1.78-1.78H100a1.78,1.78,0,0,1,1.78,1.78h0A1.78,1.78,0,0,1,100,201Z" style="fill:#263238;stroke:#263238;stroke-miterlimit:10"></path><path d="M88,201H59.83a1.78,1.78,0,0,1-1.78-1.78h0a1.78,1.78,0,0,1,1.78-1.78H88a1.78,1.78,0,0,1,1.78,1.78h0A1.78,1.78,0,0,1,88,201Z" style="fill:#fff;stroke:#263238;stroke-linecap:round;stroke-linejoin:round"></path></g><g id="freepik--device-2--inject-219"><path d="M289.19,385.13H210.81l10.51-1.83a8.36,8.36,0,0,0,6.93-8.23V347.85h43.5v27.22a8.36,8.36,0,0,0,6.93,8.23Z" style="fill:#fff"></path><g style="clip-path:url(#freepik--clip-path--inject-219)"><polygon points="271.75 347.85 271.75 370.94 228.25 373.24 228.25 347.85 271.75 347.85" style="fill-opacity:0.7000000000000001;opacity:0.30000000000000004"></polygon></g><path d="M289.19,385.13H210.81l10.51-1.83a8.36,8.36,0,0,0,6.93-8.23V347.85h43.5v27.22a8.36,8.36,0,0,0,6.93,8.23Z" style="fill:none;stroke:#263238;stroke-linecap:round;stroke-linejoin:round"></path><rect x="146.52" y="238.3" width="206.96" height="126.11" rx="3.46" style="fill:#263238"></rect><rect x="148.81" y="243.83" width="202.37" height="112.15" style="fill:#fff;stroke:#263238;stroke-linecap:round;stroke-linejoin:round"></rect><path d="M254.47,360.85h-8.94a1,1,0,0,1-1-1h0a1,1,0,0,1,1-1h8.94a1,1,0,0,1,1,1h0A1,1,0,0,1,254.47,360.85Z" style="fill:#fff"></path><path d="M251.48,240.93a1.48,1.48,0,1,1-1.48-1.47A1.48,1.48,0,0,1,251.48,240.93Z" style="fill:#fff"></path><rect x="150.41" y="244.67" width="199.19" height="3.86" style="fill:#073763;opacity:0.5"></rect><line x1="150.41" y1="248.53" x2="349.59" y2="248.53" style="fill:none;stroke:#263238;stroke-linecap:round;stroke-linejoin:round"></line><line x1="153.14" y1="246.51" x2="158.92" y2="246.51" style="fill:none;stroke:#263238;stroke-linecap:round;stroke-linejoin:round"></line><line x1="165.23" y1="246.51" x2="170.43" y2="246.51" style="fill:none;stroke:#263238;stroke-linecap:round;stroke-linejoin:round"></line><line x1="177.17" y1="246.51" x2="182.23" y2="246.51" style="fill:none;stroke:#263238;stroke-linecap:round;stroke-linejoin:round"></line><path d="M275.15,286.88c1.76,0,2.66,1.05,2.66,2.89v.36H276.1v-.47c0-.82-.33-1.13-.9-1.13s-.9.31-.9,1.13.36,1.46,1.54,2.49c1.51,1.33,2,2.29,2,3.6,0,1.84-.92,2.89-2.7,2.89s-2.69-1.05-2.69-2.89V295h1.71v.82c0,.83.36,1.12.93,1.12s.94-.29.94-1.12-.36-1.46-1.54-2.49c-1.51-1.33-2-2.28-2-3.6C272.49,287.93,273.39,286.88,275.15,286.88Z" style="fill:#073763"></path><path d="M280.44,294.7,278.15,287H280l1.37,5.24h0L282.8,287h1.73l-2.29,7.69v3.81h-1.8Z" style="fill:#073763"></path><path d="M286.89,290.18h0v8.33h-1.63V287h2.27l1.82,6.88h0V287H291v11.5H289.1Z" style="fill:#073763"></path><path d="M297.49,294.22v1.53c0,1.84-.92,2.89-2.69,2.89s-2.69-1.05-2.69-2.89v-6c0-1.84.92-2.89,2.69-2.89s2.69,1.05,2.69,2.89v1.12h-1.7v-1.23c0-.82-.37-1.13-.94-1.13s-.93.31-.93,1.13v6.2c0,.83.36,1.12.93,1.12s.94-.29.94-1.12v-1.64Z" style="fill:#073763"></path><path d="M319.59,335.82H250.41a1.78,1.78,0,0,1-1.78-1.78h0a1.78,1.78,0,0,1,1.78-1.78h69.18a1.78,1.78,0,0,1,1.78,1.78h0A1.78,1.78,0,0,1,319.59,335.82Z" style="fill:none;stroke:#263238;stroke-linecap:round;stroke-linejoin:round"></path><path d="M299.59,335.82H250.41a1.78,1.78,0,0,1-1.78-1.78h0a1.78,1.78,0,0,1,1.78-1.78h49.18a1.78,1.78,0,0,1,1.78,1.78h0A1.78,1.78,0,0,1,299.59,335.82Z" style="fill:#073763;stroke:#263238;stroke-linecap:round;stroke-linejoin:round"></path><path d="M287.41,317.59a24.71,24.71,0,0,1-10.14-48.06" style="fill:none;stroke:#263238;stroke-linecap:round;stroke-linejoin:round"></path><path d="M282.59,268.41a24.71,24.71,0,0,1,10.14,48.06" style="fill:none;stroke:#263238;stroke-linecap:round;stroke-linejoin:round"></path><polyline points="285 271.16 282.13 268.29 285 265.42" style="fill:none;stroke:#263238;stroke-linecap:round;stroke-linejoin:round"></polyline><polyline points="285 314.84 287.87 317.71 285 320.58" style="fill:none;stroke:#263238;stroke-linecap:round;stroke-linejoin:round"></polyline><line x1="216.72" y1="285.45" x2="150.41" y2="285.45" style="fill:none;stroke:#263238;stroke-linecap:round;stroke-linejoin:round"></line><rect x="218.05" y="248.53" width="2.67" height="104.93" style="fill:#263238"></rect><path d="M165.53,256.14a.58.58,0,0,1-.55-.39l-.29-.83a.58.58,0,0,0-.56-.39h-3.26a.59.59,0,0,0-.56.39l-.29.83a.58.58,0,0,1-.55.39h-4.1a.58.58,0,0,0-.59.59v6.55a.58.58,0,0,0,.59.59h10.16a.58.58,0,0,0,.59-.59v-6.55A.58.58,0,0,0,165.53,256.14Z" style="fill:#073763;stroke:#263238;stroke-linecap:round;stroke-linejoin:round"></path><path d="M181.25,256.14a.58.58,0,0,1-.55-.39l-.29-.83a.58.58,0,0,0-.56-.39h-3.26a.59.59,0,0,0-.56.39l-.29.83a.58.58,0,0,1-.55.39h-4.1a.58.58,0,0,0-.59.59v6.55a.58.58,0,0,0,.59.59h10.16a.58.58,0,0,0,.59-.59v-6.55A.58.58,0,0,0,181.25,256.14Z" style="fill:#073763;stroke:#263238;stroke-linecap:round;stroke-linejoin:round"></path><path d="M197,256.14a.59.59,0,0,1-.55-.39l-.29-.83a.58.58,0,0,0-.56-.39h-3.26a.59.59,0,0,0-.56.39l-.29.83a.58.58,0,0,1-.55.39h-4.1a.58.58,0,0,0-.59.59v6.55a.58.58,0,0,0,.59.59H197a.58.58,0,0,0,.59-.59v-6.55A.58.58,0,0,0,197,256.14Z" style="fill:#073763;stroke:#263238;stroke-linecap:round;stroke-linejoin:round"></path><path d="M212.69,256.14a.59.59,0,0,1-.55-.39l-.29-.83a.58.58,0,0,0-.55-.39H208a.59.59,0,0,0-.56.39l-.29.83a.58.58,0,0,1-.55.39h-4.1a.58.58,0,0,0-.59.59v6.55a.58.58,0,0,0,.59.59h10.16a.58.58,0,0,0,.59-.59v-6.55A.58.58,0,0,0,212.69,256.14Z" style="fill:#073763;stroke:#263238;stroke-linecap:round;stroke-linejoin:round"></path><path d="M165.53,270.14a.58.58,0,0,1-.55-.39l-.29-.83a.58.58,0,0,0-.56-.39h-3.26a.59.59,0,0,0-.56.39l-.29.83a.58.58,0,0,1-.55.39h-4.1a.58.58,0,0,0-.59.59v6.55a.58.58,0,0,0,.59.59h10.16a.58.58,0,0,0,.59-.59v-6.55A.58.58,0,0,0,165.53,270.14Z" style="fill:#073763;stroke:#263238;stroke-linecap:round;stroke-linejoin:round"></path><path d="M181.25,270.14a.58.58,0,0,1-.55-.39l-.29-.83a.58.58,0,0,0-.56-.39h-3.26a.59.59,0,0,0-.56.39l-.29.83a.58.58,0,0,1-.55.39h-4.1a.58.58,0,0,0-.59.59v6.55a.58.58,0,0,0,.59.59h10.16a.58.58,0,0,0,.59-.59v-6.55A.58.58,0,0,0,181.25,270.14Z" style="fill:#073763;stroke:#263238;stroke-linecap:round;stroke-linejoin:round"></path><path d="M197,270.14a.59.59,0,0,1-.55-.39l-.29-.83a.58.58,0,0,0-.56-.39h-3.26a.59.59,0,0,0-.56.39l-.29.83a.58.58,0,0,1-.55.39h-4.1a.58.58,0,0,0-.59.59v6.55a.58.58,0,0,0,.59.59H197a.58.58,0,0,0,.59-.59v-6.55A.58.58,0,0,0,197,270.14Z" style="fill:#073763;stroke:#263238;stroke-linecap:round;stroke-linejoin:round"></path><path d="M212.69,270.14a.59.59,0,0,1-.55-.39l-.29-.83a.58.58,0,0,0-.55-.39H208a.59.59,0,0,0-.56.39l-.29.83a.58.58,0,0,1-.55.39h-4.1a.58.58,0,0,0-.59.59v6.55a.58.58,0,0,0,.59.59h10.16a.58.58,0,0,0,.59-.59v-6.55A.58.58,0,0,0,212.69,270.14Z" style="fill:#073763;stroke:#263238;stroke-linecap:round;stroke-linejoin:round"></path><path d="M219.39,257.42h0a1.33,1.33,0,0,1-1.34-1.33v-4.71a1.34,1.34,0,0,1,1.34-1.34h0a1.34,1.34,0,0,1,1.33,1.34v4.71A1.33,1.33,0,0,1,219.39,257.42Z" style="fill:#073763;stroke:#263238;stroke-linecap:round;stroke-linejoin:round"></path><path d="M219.39,293.42h0a1.33,1.33,0,0,1-1.34-1.33v-4.71a1.34,1.34,0,0,1,1.34-1.34h0a1.34,1.34,0,0,1,1.33,1.34v4.71A1.33,1.33,0,0,1,219.39,293.42Z" style="fill:#073763;stroke:#263238;stroke-linecap:round;stroke-linejoin:round"></path><line x1="154.78" y1="293.62" x2="174.64" y2="293.62" style="fill:none;stroke:#263238;stroke-linecap:round;stroke-linejoin:round"></line><line x1="163.35" y1="297.73" x2="187.22" y2="297.73" style="fill:none;stroke:#263238;stroke-linecap:round;stroke-linejoin:round"></line><line x1="163.35" y1="301.84" x2="183.22" y2="301.84" style="fill:none;stroke:#263238;stroke-linecap:round;stroke-linejoin:round"></line><line x1="163.35" y1="305.94" x2="184.22" y2="305.94" style="fill:none;stroke:#263238;stroke-linecap:round;stroke-linejoin:round"></line><line x1="154.78" y1="310.05" x2="169.64" y2="310.05" style="fill:none;stroke:#263238;stroke-linecap:round;stroke-linejoin:round"></line><line x1="163.35" y1="314.16" x2="189.22" y2="314.16" style="fill:none;stroke:#263238;stroke-linecap:round;stroke-linejoin:round"></line><line x1="163.35" y1="318.27" x2="192.22" y2="318.27" style="fill:none;stroke:#263238;stroke-linecap:round;stroke-linejoin:round"></line><line x1="163.35" y1="322.38" x2="186.22" y2="322.38" style="fill:none;stroke:#263238;stroke-linecap:round;stroke-linejoin:round"></line><line x1="173.35" y1="326.49" x2="196.22" y2="326.49" style="fill:none;stroke:#263238;stroke-linecap:round;stroke-linejoin:round"></line><line x1="173.35" y1="330.59" x2="192.22" y2="330.59" style="fill:none;stroke:#263238;stroke-linecap:round;stroke-linejoin:round"></line><line x1="154.78" y1="334.7" x2="169.64" y2="334.7" style="fill:none;stroke:#263238;stroke-linecap:round;stroke-linejoin:round"></line><line x1="163.35" y1="338.81" x2="188.22" y2="338.81" style="fill:none;stroke:#263238;stroke-linecap:round;stroke-linejoin:round"></line><line x1="163.35" y1="342.92" x2="184.22" y2="342.92" style="fill:none;stroke:#263238;stroke-linecap:round;stroke-linejoin:round"></line><line x1="163.35" y1="347.03" x2="186.22" y2="347.03" style="fill:none;stroke:#263238;stroke-linecap:round;stroke-linejoin:round"></line><rect x="210.81" y="385.15" width="78.37" height="2.92" style="fill:#073763;stroke:#263238;stroke-linecap:round;stroke-linejoin:round"></rect><path d="M352.08,410.7H147.92l14.33-14.33a8.88,8.88,0,0,1,6.29-2.6H331.46a8.88,8.88,0,0,1,6.29,2.6Z" style="fill:#073763;stroke:#263238;stroke-linecap:round;stroke-linejoin:round"></path><rect x="147.92" y="410.7" width="204.15" height="1.46" style="fill:#263238;stroke:#263238;stroke-linecap:round;stroke-linejoin:round"></rect><polygon points="161.2 400.99 168.25 400.99 170.37 398.73 163.5 398.73 161.2 400.99" style="fill:none;stroke:#263238;stroke-linecap:round;stroke-linejoin:round;stroke-width:0.75px"></polygon><polygon points="170.68 400.99 177.72 400.99 179.59 398.73 172.73 398.73 170.68 400.99" style="fill:none;stroke:#263238;stroke-linecap:round;stroke-linejoin:round;stroke-width:0.75px"></polygon><polygon points="180.15 400.99 187.2 400.99 188.82 398.73 181.96 398.73 180.15 400.99" style="fill:none;stroke:#263238;stroke-linecap:round;stroke-linejoin:round;stroke-width:0.75px"></polygon><polygon points="189.63 400.99 196.67 400.99 198.05 398.73 191.19 398.73 189.63 400.99" style="fill:none;stroke:#263238;stroke-linecap:round;stroke-linejoin:round;stroke-width:0.75px"></polygon><polygon points="199.1 400.99 206.15 400.99 207.28 398.73 200.42 398.73 199.1 400.99" style="fill:none;stroke:#263238;stroke-linecap:round;stroke-linejoin:round;stroke-width:0.75px"></polygon><polygon points="208.58 400.99 215.62 400.99 216.51 398.73 209.65 398.73 208.58 400.99" style="fill:none;stroke:#263238;stroke-linecap:round;stroke-linejoin:round;stroke-width:0.75px"></polygon><polygon points="218.05 400.99 225.1 400.99 225.74 398.73 218.88 398.73 218.05 400.99" style="fill:none;stroke:#263238;stroke-linecap:round;stroke-linejoin:round;stroke-width:0.75px"></polygon><polygon points="227.53 400.99 234.57 400.99 234.97 398.73 228.11 398.73 227.53 400.99" style="fill:none;stroke:#263238;stroke-linecap:round;stroke-linejoin:round;stroke-width:0.75px"></polygon><polygon points="237 400.99 244.05 400.99 244.2 398.73 237.34 398.73 237 400.99" style="fill:none;stroke:#263238;stroke-linecap:round;stroke-linejoin:round;stroke-width:0.75px"></polygon><polygon points="246.48 400.99 253.52 400.99 253.43 398.73 246.57 398.73 246.48 400.99" style="fill:none;stroke:#263238;stroke-linecap:round;stroke-linejoin:round;stroke-width:0.75px"></polygon><polygon points="255.95 400.99 263 400.99 262.66 398.73 255.8 398.73 255.95 400.99" style="fill:none;stroke:#263238;stroke-linecap:round;stroke-linejoin:round;stroke-width:0.75px"></polygon><polygon points="265.43 400.99 272.47 400.99 271.89 398.73 265.03 398.73 265.43 400.99" style="fill:none;stroke:#263238;stroke-linecap:round;stroke-linejoin:round;stroke-width:0.75px"></polygon><polygon points="274.9 400.99 281.95 400.99 281.12 398.73 274.26 398.73 274.9 400.99" style="fill:none;stroke:#263238;stroke-linecap:round;stroke-linejoin:round;stroke-width:0.75px"></polygon><polygon points="293.85 400.99 300.9 400.99 299.58 398.73 292.72 398.73 293.85 400.99" style="fill:none;stroke:#263238;stroke-linecap:round;stroke-linejoin:round;stroke-width:0.75px"></polygon><polygon points="303.33 400.99 310.38 400.99 308.81 398.73 301.95 398.73 303.33 400.99" style="fill:none;stroke:#263238;stroke-linecap:round;stroke-linejoin:round;stroke-width:0.75px"></polygon><polygon points="320.4 398.73 322.28 400.99 329.32 400.99 327.27 398.73 320.4 398.73" style="fill:none;stroke:#263238;stroke-linecap:round;stroke-linejoin:round;stroke-width:0.75px"></polygon><polygon points="329.63 398.73 331.75 400.99 338.8 400.99 336.5 398.73 329.63 398.73" style="fill:none;stroke:#263238;stroke-linecap:round;stroke-linejoin:round;stroke-width:0.75px"></polygon><polygon points="311.18 398.73 312.8 400.99 319.85 400.99 318.04 398.73 311.18 398.73" style="fill:none;stroke:#263238;stroke-linecap:round;stroke-linejoin:round;stroke-width:0.75px"></polygon><polygon points="283.49 398.73 284.38 400.99 291.42 400.99 290.35 398.73 283.49 398.73" style="fill:none;stroke:#263238;stroke-linecap:round;stroke-linejoin:round;stroke-width:0.75px"></polygon><polygon points="157.44 404.66 164.78 404.66 167.08 402.22 159.94 402.22 157.44 404.66" style="fill:none;stroke:#263238;stroke-linecap:round;stroke-linejoin:round;stroke-width:0.75px"></polygon><polygon points="167.31 404.66 174.66 404.66 176.69 402.22 169.55 402.22 167.31 404.66" style="fill:none;stroke:#263238;stroke-linecap:round;stroke-linejoin:round;stroke-width:0.75px"></polygon><polygon points="177.19 404.66 184.54 404.66 186.3 402.22 179.16 402.22 177.19 404.66" style="fill:none;stroke:#263238;stroke-linecap:round;stroke-linejoin:round;stroke-width:0.75px"></polygon><polygon points="187.07 404.66 194.41 404.66 195.91 402.22 188.77 402.22 187.07 404.66" style="fill:none;stroke:#263238;stroke-linecap:round;stroke-linejoin:round;stroke-width:0.75px"></polygon><polygon points="196.94 404.66 204.29 404.66 205.52 402.22 198.38 402.22 196.94 404.66" style="fill:none;stroke:#263238;stroke-linecap:round;stroke-linejoin:round;stroke-width:0.75px"></polygon><polygon points="206.82 404.66 214.17 404.66 215.13 402.22 207.99 402.22 206.82 404.66" style="fill:none;stroke:#263238;stroke-linecap:round;stroke-linejoin:round;stroke-width:0.75px"></polygon><polygon points="216.7 404.66 224.04 404.66 224.74 402.22 217.6 402.22 216.7 404.66" style="fill:none;stroke:#263238;stroke-linecap:round;stroke-linejoin:round;stroke-width:0.75px"></polygon><polygon points="226.57 404.66 233.92 404.66 234.35 402.22 227.21 402.22 226.57 404.66" style="fill:none;stroke:#263238;stroke-linecap:round;stroke-linejoin:round;stroke-width:0.75px"></polygon><polygon points="236.45 404.66 243.8 404.66 243.96 402.22 236.82 402.22 236.45 404.66" style="fill:none;stroke:#263238;stroke-linecap:round;stroke-linejoin:round;stroke-width:0.75px"></polygon><polygon points="246.33 404.66 253.67 404.66 253.57 402.22 246.43 402.22 246.33 404.66" style="fill:none;stroke:#263238;stroke-linecap:round;stroke-linejoin:round;stroke-width:0.75px"></polygon><polygon points="256.2 404.66 263.55 404.66 263.18 402.22 256.04 402.22 256.2 404.66" style="fill:none;stroke:#263238;stroke-linecap:round;stroke-linejoin:round;stroke-width:0.75px"></polygon><polygon points="266.08 404.66 273.43 404.66 272.79 402.22 265.65 402.22 266.08 404.66" style="fill:none;stroke:#263238;stroke-linecap:round;stroke-linejoin:round;stroke-width:0.75px"></polygon><polygon points="275.96 404.66 283.3 404.66 282.4 402.22 275.26 402.22 275.96 404.66" style="fill:none;stroke:#263238;stroke-linecap:round;stroke-linejoin:round;stroke-width:0.75px"></polygon><polygon points="295.71 404.66 303.06 404.66 301.62 402.22 294.48 402.22 295.71 404.66" style="fill:none;stroke:#263238;stroke-linecap:round;stroke-linejoin:round;stroke-width:0.75px"></polygon><polygon points="305.59 404.66 312.93 404.66 311.23 402.22 304.09 402.22 305.59 404.66" style="fill:none;stroke:#263238;stroke-linecap:round;stroke-linejoin:round;stroke-width:0.75px"></polygon><polygon points="325.34 404.66 332.69 404.66 330.45 402.22 323.31 402.22 325.34 404.66" style="fill:none;stroke:#263238;stroke-linecap:round;stroke-linejoin:round;stroke-width:0.75px"></polygon><polygon points="335.22 404.66 342.56 404.66 340.06 402.22 332.92 402.22 335.22 404.66" style="fill:none;stroke:#263238;stroke-linecap:round;stroke-linejoin:round;stroke-width:0.75px"></polygon><polygon points="315.46 404.66 322.81 404.66 320.84 402.22 313.7 402.22 315.46 404.66" style="fill:none;stroke:#263238;stroke-linecap:round;stroke-linejoin:round;stroke-width:0.75px"></polygon><polygon points="285.83 404.66 293.18 404.66 292.01 402.22 284.87 402.22 285.83 404.66" style="fill:none;stroke:#263238;stroke-linecap:round;stroke-linejoin:round;stroke-width:0.75px"></polygon><polygon points="153.34 408.66 161.01 408.66 163.52 406 156.07 406 153.34 408.66" style="fill:none;stroke:#263238;stroke-linecap:round;stroke-linejoin:round;stroke-width:0.75px"></polygon><polygon points="163.66 408.66 171.33 408.66 173.54 406 166.09 406 163.66 408.66" style="fill:none;stroke:#263238;stroke-linecap:round;stroke-linejoin:round;stroke-width:0.75px"></polygon><polygon points="173.97 408.66 181.64 408.66 183.57 406 176.11 406 173.97 408.66" style="fill:none;stroke:#263238;stroke-linecap:round;stroke-linejoin:round;stroke-width:0.75px"></polygon><polygon points="184.28 408.66 191.96 408.66 193.59 406 186.13 406 184.28 408.66" style="fill:none;stroke:#263238;stroke-linecap:round;stroke-linejoin:round;stroke-width:0.75px"></polygon><polygon points="256.48 408.66 264.15 408.66 263.75 406 256.3 406 203.61 406 196.16 406 194.6 408.66 202.27 408.66 256.48 408.66" style="fill:none;stroke:#263238;stroke-linecap:round;stroke-linejoin:round;stroke-width:0.75px"></polygon><polygon points="266.79 408.66 274.46 408.66 273.77 406 266.32 406 266.79 408.66" style="fill:none;stroke:#263238;stroke-linecap:round;stroke-linejoin:round;stroke-width:0.75px"></polygon><polygon points="277.11 408.66 284.77 408.66 283.8 406 276.34 406 277.11 408.66" style="fill:none;stroke:#263238;stroke-linecap:round;stroke-linejoin:round;stroke-width:0.75px"></polygon><polygon points="297.73 408.66 305.4 408.66 303.84 406 296.39 406 297.73 408.66" style="fill:none;stroke:#263238;stroke-linecap:round;stroke-linejoin:round;stroke-width:0.75px"></polygon><polygon points="328.67 408.66 336.34 408.66 333.91 406 326.46 406 328.67 408.66" style="fill:none;stroke:#263238;stroke-linecap:round;stroke-linejoin:round;stroke-width:0.75px"></polygon><polygon points="338.99 408.66 346.65 408.66 343.93 406 336.48 406 338.99 408.66" style="fill:none;stroke:#263238;stroke-linecap:round;stroke-linejoin:round;stroke-width:0.75px"></polygon><polygon points="313.87 406 306.41 406 308.05 408.66 315.71 408.66 318.36 408.66 326.03 408.66 323.89 406 316.43 406 313.87 406" style="fill:none;stroke:#263238;stroke-linecap:round;stroke-linejoin:round;stroke-width:0.75px"></polygon><polygon points="287.42 408.66 295.09 408.66 293.82 406 286.37 406 287.42 408.66" style="fill:none;stroke:#263238;stroke-linecap:round;stroke-linejoin:round;stroke-width:0.75px"></polygon><polygon points="164.67 397.6 171.44 397.6 173.4 395.51 166.79 395.51 164.67 397.6" style="fill:none;stroke:#263238;stroke-linecap:round;stroke-linejoin:round;stroke-width:0.75px"></polygon><polygon points="173.77 397.6 180.54 397.6 182.28 395.51 175.67 395.51 173.77 397.6" style="fill:none;stroke:#263238;stroke-linecap:round;stroke-linejoin:round;stroke-width:0.75px"></polygon><polygon points="182.88 397.6 189.65 397.6 191.15 395.51 184.55 395.51 182.88 397.6" style="fill:none;stroke:#263238;stroke-linecap:round;stroke-linejoin:round;stroke-width:0.75px"></polygon><polygon points="191.98 397.6 198.75 397.6 200.03 395.51 193.43 395.51 191.98 397.6" style="fill:none;stroke:#263238;stroke-linecap:round;stroke-linejoin:round;stroke-width:0.75px"></polygon><polygon points="201.09 397.6 207.86 397.6 208.91 395.51 202.31 395.51 201.09 397.6" style="fill:none;stroke:#263238;stroke-linecap:round;stroke-linejoin:round;stroke-width:0.75px"></polygon><polygon points="210.19 397.6 216.96 397.6 217.79 395.51 211.19 395.51 210.19 397.6" style="fill:none;stroke:#263238;stroke-linecap:round;stroke-linejoin:round;stroke-width:0.75px"></polygon><polygon points="219.3 397.6 226.07 397.6 226.67 395.51 220.06 395.51 219.3 397.6" style="fill:none;stroke:#263238;stroke-linecap:round;stroke-linejoin:round;stroke-width:0.75px"></polygon><polygon points="228.4 397.6 235.18 397.6 235.54 395.51 228.94 395.51 228.4 397.6" style="fill:none;stroke:#263238;stroke-linecap:round;stroke-linejoin:round;stroke-width:0.75px"></polygon><polygon points="237.51 397.6 244.28 397.6 244.42 395.51 237.82 395.51 237.51 397.6" style="fill:none;stroke:#263238;stroke-linecap:round;stroke-linejoin:round;stroke-width:0.75px"></polygon><polygon points="246.61 397.6 253.39 397.6 253.3 395.51 246.7 395.51 246.61 397.6" style="fill:none;stroke:#263238;stroke-linecap:round;stroke-linejoin:round;stroke-width:0.75px"></polygon><polygon points="255.72 397.6 262.49 397.6 262.18 395.51 255.58 395.51 255.72 397.6" style="fill:none;stroke:#263238;stroke-linecap:round;stroke-linejoin:round;stroke-width:0.75px"></polygon><polygon points="264.82 397.6 271.6 397.6 271.06 395.51 264.45 395.51 264.82 397.6" style="fill:none;stroke:#263238;stroke-linecap:round;stroke-linejoin:round;stroke-width:0.75px"></polygon><polygon points="273.93 397.6 280.7 397.6 279.94 395.51 273.33 395.51 273.93 397.6" style="fill:none;stroke:#263238;stroke-linecap:round;stroke-linejoin:round;stroke-width:0.75px"></polygon><polygon points="292.14 397.6 298.91 397.6 297.69 395.51 291.09 395.51 292.14 397.6" style="fill:none;stroke:#263238;stroke-linecap:round;stroke-linejoin:round;stroke-width:0.75px"></polygon><polygon points="301.25 397.6 308.02 397.6 306.57 395.51 299.97 395.51 301.25 397.6" style="fill:none;stroke:#263238;stroke-linecap:round;stroke-linejoin:round;stroke-width:0.75px"></polygon><polygon points="317.73 395.51 319.46 397.6 326.23 397.6 324.33 395.51 317.73 395.51" style="fill:none;stroke:#263238;stroke-linecap:round;stroke-linejoin:round;stroke-width:0.75px"></polygon><polygon points="326.6 395.51 328.56 397.6 335.33 397.6 333.21 395.51 326.6 395.51" style="fill:none;stroke:#263238;stroke-linecap:round;stroke-linejoin:round;stroke-width:0.75px"></polygon><polygon points="308.85 395.51 310.35 397.6 317.12 397.6 315.45 395.51 308.85 395.51" style="fill:none;stroke:#263238;stroke-linecap:round;stroke-linejoin:round;stroke-width:0.75px"></polygon><polygon points="282.21 395.51 283.04 397.6 289.81 397.6 288.81 395.51 282.21 395.51" style="fill:none;stroke:#263238;stroke-linecap:round;stroke-linejoin:round;stroke-width:0.75px"></polygon></g><g id="freepik--left-hand--inject-219"><path d="M198.85,405.83c-.47-2.32-.81-3-4.63-3.94a15,15,0,0,0-7.39.36l-.35.1a19.69,19.69,0,0,0-1.63-4.1c-.69-.87-3.93-9.54-4.27-10.35a4.88,4.88,0,0,0-1.52-1.47,7.86,7.86,0,0,0-4.05-1.61h-.09c-2.29.05-10.66-.52-10.66-.52a14.59,14.59,0,0,0-2.31-3.23,12.46,12.46,0,0,0-6.13-1.61,1.93,1.93,0,0,0-.4.14h0a42.36,42.36,0,0,0-5.14,3.54s-.13-.15-.33-.34a2.71,2.71,0,0,0-1.52-.87c-.74,0-3.84-.9-5.11-.25a1.2,1.2,0,0,0-.33.25c-.54.64-3,3.23-5.22,5.46a30.35,30.35,0,0,1-3.8,3.41c-1.62,1-4.41,1.41-6,1.88s-6.59,5.38-6.59,5.38c-4.27.85-19.26,1.76-29.22,2.28-5.34.29-9.25.46-9.25.46l9.56,47.7,3.29-1.15c9-3.15,33.74-11.7,37.42-12.21,4.51-.64,6.94-2.84,10.3-3.23a34,34,0,0,1,11.31,0c5,.88,12.39-2.38,18-3.66s8-5.53,9.07-7.58,2.78-3.4,5.78-4.79,4.06-2.9,6.14-4.17c1.92-1.17,5-3.23,5.12-5.36A1.89,1.89,0,0,0,198.85,405.83Zm-19.79,0s-.63.3-1,0a13,13,0,0,0-2.13-1.07c.34-.93-.26-2.1-.74-3.07a26.51,26.51,0,0,1-1.07-2.85,30.7,30.7,0,0,0,2.79,3.52,2.89,2.89,0,0,0,.94.53,9.17,9.17,0,0,0,1.17,2.94Z" style="fill:#fff"></path><path d="M92.13,400.35c10-.52,25-1.43,29.22-2.28,0,0,5-4.9,6.59-5.38s4.4-.92,6-1.88a30.35,30.35,0,0,0,3.8-3.41,50.17,50.17,0,0,1-5.63,7.4c-2.64,2.39-3.54,0-3.54,0C125.57,400.09,99.61,400.38,92.13,400.35Z" style="fill:#073763;opacity:0.4"></path><path d="M143.31,381.69c1.27-.65,4.37.25,5.11.25a2.71,2.71,0,0,1,1.52.87c-.85.71-1.41,1.26-1.41,1.26s-1.5-.92-3.34-2.12A2.42,2.42,0,0,0,143.31,381.69Z" style="fill:#073763;opacity:0.4"></path><path d="M155.42,379.6a1.93,1.93,0,0,1,.4-.14,12.46,12.46,0,0,1,6.13,1.61,14.59,14.59,0,0,1,2.31,3.23s8.37.57,10.66.52H175c.86,3.21-3.48,4.58-3.48,4.58s-1.05-4.73-5.27-5-5.61.79-5.61.79c-.08-3.88-1.49-4.47-4-5.52A2.41,2.41,0,0,0,155.42,379.6Z" style="fill:#073763;opacity:0.4"></path><path d="M174.14,398.83a26.51,26.51,0,0,0,1.07,2.85c.48,1,1.08,2.14.74,3.07a13,13,0,0,1,2.13,1.07c-1.34-.7-3.94-1.92-3.94-1.92.83-1.89-1.3-9-1.3-9a15.1,15.1,0,0,0,6.22-2.82c1.6-1.32.85-3.86,0-5.69a4.88,4.88,0,0,1,1.52,1.47c.34.81,3.58,9.48,4.27,10.35a19.69,19.69,0,0,1,1.63,4.1l.35-.1c-2.38,1.3-6,3.18-7.79,3.57a9.17,9.17,0,0,1-1.17-2.94,2.89,2.89,0,0,1-.94-.53A30.7,30.7,0,0,1,174.14,398.83Z" style="fill:#073763;opacity:0.4"></path><path d="M196.5,404.93a6,6,0,0,1,2.38,1.43c-.09,2.13-3.2,4.19-5.12,5.36-2.08,1.27-3.13,2.78-6.14,4.17s-4.67,2.73-5.78,4.79-3.45,6.31-9.07,7.58-13.05,4.54-18,3.66a34,34,0,0,0-11.31,0c-3.36.39-5.79,2.59-10.3,3.23-3.68.51-28.39,9.06-37.42,12.21,9-9.69,37.92-18.88,42.12-18.38,4.59.56,12.35-1.34,15.67-2s3.88-2,3.88-2a5.29,5.29,0,0,1-1.18,2.53,12.65,12.65,0,0,0,2,1.42c1.11.64,15.28-2.93,17.76-5.06s5.91-6.41,7.17-7.39,8.33-3,9.34-5-1.27-5.93-1.74-6.56S192.07,403.43,196.5,404.93Z" style="fill:#073763;opacity:0.4"></path><path d="M200.53,410.81v-.61A3.24,3.24,0,0,1,200.53,410.81Z" style="fill:#073763;opacity:0.4"></path><path d="M82.88,400.81s31.89-1.44,38.47-2.73c0,0,5-4.91,6.59-5.39s4.4-.92,6-1.87,8.1-7.78,9-8.88,4.63,0,5.44,0,1.85,1.22,1.85,1.22,4.39-3.47,5.55-3.7a12.44,12.44,0,0,1,6.13,1.61,14.61,14.61,0,0,1,2.31,3.22s8.37.58,10.66.53a8.36,8.36,0,0,1,5.66,3.08c.34.81,3.58,9.48,4.27,10.35a19.72,19.72,0,0,1,1.63,4.11,15.41,15.41,0,0,1,7.74-.47c3.82.93,4.16,1.62,4.63,3.94s-3,4.62-5.09,5.9-3.13,2.77-6.13,4.16-4.68,2.73-5.79,4.78-3.45,6.32-9.07,7.59-13.05,4.54-18,3.67a33.44,33.44,0,0,0-11.31,0c-3.36.38-5.79,2.58-10.3,3.22s-40.71,13.36-40.71,13.36" style="fill:none;stroke:#263238;stroke-linecap:round;stroke-linejoin:round"></path><path d="M164.26,384.29a8.51,8.51,0,0,0-4.39,1.38" style="fill:none;stroke:#263238;stroke-linecap:round;stroke-linejoin:round"></path><path d="M169.27,385.67c1.53.71,2.7,5.15,2.7,5.15" style="fill:none;stroke:#263238;stroke-linecap:round;stroke-linejoin:round"></path><path d="M173.52,396.23s.84,4.2,1.69,5.45a4.8,4.8,0,0,1,.73,2.77" style="fill:none;stroke:#263238;stroke-linecap:round;stroke-linejoin:round"></path><path d="M173.52,403.63a34,34,0,0,1,4.35,2.21c1.08.8,4.57-2,8.61-3.48" style="fill:none;stroke:#263238;stroke-linecap:round;stroke-linejoin:round"></path><path d="M173.86,397.76a6.07,6.07,0,0,1,2.55-1c1.73-.35,3.19-2.95,3.59-4.63" style="fill:none;stroke:#263238;stroke-linecap:round;stroke-linejoin:round"></path><path d="M179.06,405.85a9,9,0,0,1-1.19-3,2.83,2.83,0,0,1-.94-.52,31.55,31.55,0,0,1-2.79-3.53" style="fill:none;stroke:#263238;stroke-linecap:round;stroke-linejoin:round"></path><path d="M177.87,402.88s3,.29,4.78-1.16" style="fill:none;stroke:#263238;stroke-linecap:round;stroke-linejoin:round"></path><path d="M150.27,383.16A16.07,16.07,0,0,1,146.8,385" style="fill:none;stroke:#263238;stroke-linecap:round;stroke-linejoin:round"></path><path d="M143.36,381.66a5,5,0,0,1,3.67,1.5" style="fill:none;stroke:#263238;stroke-linecap:round;stroke-linejoin:round"></path><path d="M155.82,379.46s3.35.92,4.05,1.85a3.38,3.38,0,0,1,.69,1.85" style="fill:none;stroke:#263238;stroke-linecap:round;stroke-linejoin:round"></path><path d="M121.35,398.08a11,11,0,0,0,4.89-1.16" style="fill:none;stroke:#263238;stroke-linecap:round;stroke-linejoin:round"></path><path d="M143.45,431.93s6.59-2.05,9.25-2.51a6.16,6.16,0,0,0,3.93-2.43" style="fill:none;stroke:#263238;stroke-linecap:round;stroke-linejoin:round"></path><path d="M190.4,407s1.71,2.23,1.16,4.51" style="fill:none;stroke:#263238;stroke-linecap:round;stroke-linejoin:round"></path><path d="M179.06,409.24a8.73,8.73,0,0,1,3.59,5.38" style="fill:none;stroke:#263238;stroke-linecap:round;stroke-linejoin:round"></path><path d="M150.27,386.34s-6.24,6.74-9.77,8.6" style="fill:none;stroke:#263238;stroke-linecap:round;stroke-linejoin:round"></path><path d="M160.56,388.24s-6.48,6.83-9.14,8" style="fill:none;stroke:#263238;stroke-linecap:round;stroke-linejoin:round"></path></g><g id="freepik--right-hand--inject-219"><path d="M468.8,416c-8.84,0-43.69-.47-44.29-3.15s-2.37-8.2-3.36-8.27-7.12-4.48-7.12-4.48-1.38-4.55-3.51-5.14a44.59,44.59,0,0,1-6.58-3.15s-2-7.34-2.77-8.13-5.93-1.58-6.92-1-4.15,7.12-4.15,7.12c-1.78-.59-5-1.58-6.93-2.37a13.65,13.65,0,0,0-6-1c-1.59.2-6,5.34-8,8.7s-1,5.34-1,5.34a34.83,34.83,0,0,0-3.56,5.15c-.79.39-3.76.79-4.35,2s-2.37,6.66,0,9.23,4,6.33,4.55,7.32,14,10.09,18.39,11.27a83.38,83.38,0,0,1,9.5,3.37c4.92,2.64,15.41,2.85,27.87,7.09s27.36,10.14,43.91,12.87" style="fill:#fff"></path><path d="M370.25,400.47s2.62.58,3.41,2.33" style="fill:none;stroke:#263238;stroke-linecap:round;stroke-linejoin:round"></path><path d="M390.1,389.79s3.16-6.52,4.15-7.12a1.52,1.52,0,0,1,.35-.13c0,1.54.1,4.35.31,6.34.08.8,3.52,1.11,3.52,1.11S395,392.88,390.1,389.79Z" style="fill:#073763;opacity:0.4"></path><path d="M439.59,452.49c-6.83-2.21-13.21-4.56-19-6.55-12.46-4.24-23-4.45-27.87-7.09a83.38,83.38,0,0,0-9.5-3.37c-4.42-1.18-17.8-10.28-18.39-11.27s-2.18-4.75-4.55-7.32-.59-8,0-9.23,3.56-1.65,4.35-2c0,0,.12-.22.33-.57h0a5.65,5.65,0,0,1,2.3-.48c1,.09,2.86,2.13,3.17,3.29s4-.43,3.47-3.94c-.69-4.42-5.72-3.12-5.72-3.12s0-4.3,5.52-6.43a2.84,2.84,0,0,1,1.21-2.57s.67,1.58,3.44,2.18c0,0,1.06-4.75,4-6.87.31.1.6.21.89.32,1,.4,2.27.84,3.53,1.26a7.35,7.35,0,0,0-4.1,1.77c-2.41,1.74-3.22,4.7-3.85,9s-3.13,5.87-3.74,7.15a29.57,29.57,0,0,0-1.33,4s-6.5,1.83-7.34,2.84-2.44,5.65-1.43,8.71,19.93,11.08,22.3,10.69a20.26,20.26,0,0,0,2.89-.6,9,9,0,0,0,6.6,5.84c5.34,1.28,5.64-1,15.53,1.68C418.38,441.42,430,447.67,439.59,452.49Z" style="fill:#073763;opacity:0.4"></path><path d="M424.5,412.79a10.59,10.59,0,0,0-3.66-2.52s-1.79-3.84-2.48-4-1.58,2.37-2.37,1.43-2.67-7.76-3.26-9.21-1.78-2-3.07-.92-.79,9.2-2.41,6.5-2.37-11.71-2.37-11.71a36.34,36.34,0,0,0,5.64,2.62c2.13.59,3.51,5.14,3.51,5.14s6.13,4.4,7.12,4.48S423.89,410.11,424.5,412.79Z" style="fill:#073763;opacity:0.4"></path><path d="M427.22,414c-1.06.13-1.9,0-2.23-.52-.06-.09-.11-.17-.18-.26A7.78,7.78,0,0,0,427.22,414Z" style="fill:#073763;opacity:0.4"></path><path d="M468.8,416c-8.84,0-43.69-.47-44.29-3.15s-2.37-8.2-3.36-8.27-7.12-4.48-7.12-4.48-1.38-4.55-3.51-5.14a44.59,44.59,0,0,1-6.58-3.15s-2-7.34-2.77-8.13-5.93-1.58-6.92-1-4.15,7.12-4.15,7.12c-1.78-.59-5-1.58-6.93-2.37a13.65,13.65,0,0,0-6-1c-1.59.2-6,5.34-8,8.7s-1,5.34-1,5.34a34.83,34.83,0,0,0-3.56,5.15c-.79.39-3.76.79-4.35,2s-2.37,6.66,0,9.23,4,6.33,4.55,7.32,14,10.09,18.39,11.27a83.38,83.38,0,0,1,9.5,3.37c4.92,2.64,15.41,2.85,27.87,7.09s27.36,10.14,43.91,12.87" style="fill:none;stroke:#263238;stroke-linecap:round;stroke-linejoin:round"></path><path d="M364.58,405.62a10.93,10.93,0,0,0,2.64-1.06c.66-.53,4.22,2.64,3,5.14,0,0,.53,1.27,3.43.9a10.52,10.52,0,0,1,2.37-5.51c2.11-2.37,2.64-7,3.43-10.15" style="fill:none;stroke:#263238;stroke-linecap:round;stroke-linejoin:round"></path><path d="M374.87,393.48a6.21,6.21,0,0,0,3.88,4.8" style="fill:none;stroke:#263238;stroke-linecap:round;stroke-linejoin:round"></path><path d="M368.14,400.47c1.19-1.18,6-3.64,9.44-2.74" style="fill:none;stroke:#263238;stroke-linecap:round;stroke-linejoin:round"></path><line x1="390.1" y1="389.79" x2="393.06" y2="391.11" style="fill:none;stroke:#263238;stroke-linecap:round;stroke-linejoin:round"></line><path d="M392.26,390.75a13,13,0,0,1,.8-4" style="fill:none;stroke:#263238;stroke-linecap:round;stroke-linejoin:round"></path><path d="M364.78,424.21c-.59-1.13-.86-8,.72-9.76" style="fill:none;stroke:#263238;stroke-linecap:round;stroke-linejoin:round"></path><path d="M368.14,407.66s1.32-.07,2.11,2" style="fill:none;stroke:#263238;stroke-linecap:round;stroke-linejoin:round"></path><path d="M381.65,391.11s3.7-2.87,6.07-2.1" style="fill:none;stroke:#263238;stroke-linecap:round;stroke-linejoin:round"></path><path d="M397.59,390.45a5.62,5.62,0,0,1,6.35,1.34" style="fill:none;stroke:#263238;stroke-linecap:round;stroke-linejoin:round"></path><path d="M391.58,395.88s3.84,9.17,6,12" style="fill:none;stroke:#263238;stroke-linecap:round;stroke-linejoin:round"></path><path d="M405.75,397.53s1.31,7.52,3,10.32" style="fill:none;stroke:#263238;stroke-linecap:round;stroke-linejoin:round"></path><path d="M424.51,412.83A14.75,14.75,0,0,0,420,409.9" style="fill:none;stroke:#263238;stroke-linecap:round;stroke-linejoin:round"></path><path d="M392.67,438.85s-3.83-2.1-3.31-4.87" style="fill:none;stroke:#263238;stroke-linecap:round;stroke-linejoin:round"></path></g></svg>