<svg xmlns="http://www.w3.org/2000/svg" xmlns:xlink="http://www.w3.org/1999/xlink" width="1600" zoomAndPan="magnify" viewBox="0 0 675 675" height="1600" preserveAspectRatio="xMidYMid meet" version="1.0"><path fill="#073764" d="M 105.558594 396.867188 L 217.511719 396.867188 L 217.511719 508.820312 L 105.558594 508.820312 Z M 105.558594 396.867188 " fill-opacity="1" fill-rule="nonzero"/><path fill="#073764" d="M 504.761719 167.785156 C 505.808594 167.785156 506.855469 167.8125 507.902344 167.867188 C 508.949219 167.914062 509.996094 167.992188 511.039062 168.097656 C 512.082031 168.199219 513.125 168.328125 514.160156 168.480469 C 515.199219 168.636719 516.230469 168.8125 517.257812 169.019531 C 518.285156 169.222656 519.3125 169.449219 520.324219 169.707031 C 521.34375 169.964844 522.351562 170.242188 523.355469 170.546875 C 524.359375 170.847656 525.355469 171.179688 526.34375 171.53125 C 527.332031 171.886719 528.308594 172.261719 529.277344 172.664062 C 530.246094 173.0625 531.207031 173.492188 532.152344 173.9375 C 533.101562 174.386719 534.035156 174.855469 534.960938 175.351562 C 535.886719 175.847656 536.796875 176.363281 537.695312 176.902344 C 538.597656 177.441406 539.480469 178 540.351562 178.585938 C 541.222656 179.167969 542.082031 179.773438 542.925781 180.394531 C 543.765625 181.019531 544.59375 181.664062 545.40625 182.332031 C 546.214844 182.996094 547.007812 183.679688 547.785156 184.386719 C 548.5625 185.085938 549.320312 185.808594 550.0625 186.554688 C 550.804688 187.292969 551.527344 188.054688 552.234375 188.828125 C 552.933594 189.605469 553.621094 190.398438 554.285156 191.210938 C 554.949219 192.023438 555.597656 192.847656 556.21875 193.691406 C 556.847656 194.53125 557.449219 195.390625 558.03125 196.261719 C 558.613281 197.132812 559.175781 198.019531 559.710938 198.917969 C 560.25 199.816406 560.769531 200.730469 561.261719 201.652344 C 561.757812 202.578125 562.230469 203.515625 562.675781 204.464844 C 563.125 205.414062 563.550781 206.367188 563.953125 207.335938 C 564.351562 208.304688 564.730469 209.285156 565.082031 210.273438 C 565.4375 211.261719 565.765625 212.253906 566.070312 213.257812 C 566.375 214.261719 566.65625 215.269531 566.910156 216.289062 C 567.164062 217.308594 567.390625 218.328125 567.597656 219.359375 C 567.800781 220.382812 567.980469 221.417969 568.136719 222.457031 C 568.289062 223.492188 568.417969 224.53125 568.519531 225.578125 C 568.625 226.621094 568.699219 227.664062 568.753906 228.714844 C 568.800781 229.761719 568.828125 230.808594 568.828125 231.859375 C 568.828125 232.90625 568.800781 233.953125 568.753906 235 C 568.699219 236.046875 568.625 237.09375 568.519531 238.136719 C 568.417969 239.179688 568.289062 240.222656 568.136719 241.257812 C 567.980469 242.296875 567.800781 243.328125 567.597656 244.355469 C 567.390625 245.382812 567.164062 246.410156 566.910156 247.421875 C 566.65625 248.441406 566.375 249.449219 566.070312 250.453125 C 565.765625 251.457031 565.4375 252.453125 565.082031 253.441406 C 564.730469 254.425781 564.351562 255.40625 563.953125 256.375 C 563.550781 257.34375 563.125 258.304688 562.675781 259.25 C 562.230469 260.199219 561.757812 261.132812 561.261719 262.058594 C 560.769531 262.984375 560.25 263.894531 559.710938 264.792969 C 559.175781 265.695312 558.613281 266.578125 558.03125 267.449219 C 557.449219 268.320312 556.847656 269.179688 556.21875 270.023438 C 555.597656 270.863281 554.949219 271.691406 554.285156 272.503906 C 553.621094 273.3125 552.933594 274.105469 552.234375 274.882812 C 551.527344 275.660156 550.804688 276.417969 550.0625 277.160156 C 549.320312 277.902344 548.5625 278.625 547.785156 279.328125 C 547.007812 280.03125 546.214844 280.71875 545.40625 281.382812 C 544.59375 282.046875 543.765625 282.691406 542.925781 283.316406 C 542.082031 283.945312 541.222656 284.546875 540.351562 285.128906 C 539.480469 285.710938 538.597656 286.273438 537.695312 286.808594 C 536.796875 287.347656 535.886719 287.867188 534.960938 288.359375 C 534.035156 288.855469 533.101562 289.328125 532.152344 289.773438 C 531.207031 290.222656 530.246094 290.648438 529.277344 291.050781 C 528.308594 291.449219 527.332031 291.828125 526.34375 292.179688 C 525.355469 292.535156 524.359375 292.863281 523.355469 293.167969 C 522.351562 293.472656 521.34375 293.753906 520.324219 294.007812 C 519.3125 294.261719 518.285156 294.488281 517.257812 294.695312 C 516.230469 294.898438 515.199219 295.078125 514.160156 295.234375 C 513.125 295.386719 512.082031 295.511719 511.039062 295.617188 C 509.996094 295.722656 508.949219 295.796875 507.902344 295.851562 C 506.855469 295.898438 505.808594 295.925781 504.761719 295.925781 C 503.710938 295.925781 502.664062 295.898438 501.617188 295.851562 C 500.566406 295.796875 499.523438 295.722656 498.480469 295.617188 C 497.433594 295.511719 496.394531 295.386719 495.359375 295.234375 C 494.320312 295.078125 493.285156 294.898438 492.261719 294.695312 C 491.230469 294.488281 490.210938 294.261719 489.191406 294.007812 C 488.171875 293.753906 487.164062 293.472656 486.160156 293.167969 C 485.15625 292.863281 484.164062 292.535156 483.171875 292.179688 C 482.1875 291.828125 481.207031 291.449219 480.238281 291.050781 C 479.269531 290.648438 478.316406 290.222656 477.367188 289.773438 C 476.417969 289.328125 475.480469 288.855469 474.554688 288.359375 C 473.632812 287.867188 472.722656 287.347656 471.820312 286.808594 C 470.921875 286.273438 470.035156 285.710938 469.164062 285.128906 C 468.292969 284.546875 467.433594 283.945312 466.59375 283.316406 C 465.75 282.691406 464.925781 282.046875 464.113281 281.382812 C 463.300781 280.71875 462.507812 280.03125 461.734375 279.328125 C 460.957031 278.625 460.195312 277.902344 459.453125 277.160156 C 458.714844 276.417969 457.988281 275.660156 457.289062 274.882812 C 456.582031 274.105469 455.898438 273.3125 455.234375 272.503906 C 454.566406 271.691406 453.921875 270.863281 453.296875 270.023438 C 452.675781 269.179688 452.070312 268.320312 451.488281 267.449219 C 450.902344 266.578125 450.34375 265.695312 449.804688 264.792969 C 449.265625 263.894531 448.75 262.984375 448.253906 262.058594 C 447.757812 261.132812 447.289062 260.199219 446.839844 259.25 C 446.394531 258.304688 445.96875 257.34375 445.566406 256.375 C 445.164062 255.40625 444.789062 254.425781 444.433594 253.441406 C 444.082031 252.453125 443.75 251.457031 443.449219 250.453125 C 443.144531 249.449219 442.867188 248.441406 442.609375 247.421875 C 442.351562 246.410156 442.125 245.382812 441.921875 244.355469 C 441.714844 243.328125 441.539062 242.296875 441.382812 241.257812 C 441.230469 240.222656 441.101562 239.179688 441 238.136719 C 440.898438 237.09375 440.816406 236.046875 440.769531 235 C 440.714844 233.953125 440.6875 232.90625 440.6875 231.859375 C 440.6875 230.808594 440.714844 229.761719 440.769531 228.714844 C 440.816406 227.664062 440.898438 226.621094 441 225.578125 C 441.101562 224.53125 441.230469 223.492188 441.382812 222.457031 C 441.539062 221.417969 441.714844 220.382812 441.921875 219.359375 C 442.125 218.328125 442.351562 217.308594 442.609375 216.289062 C 442.867188 215.269531 443.144531 214.261719 443.449219 213.257812 C 443.75 212.253906 444.082031 211.261719 444.4375 210.273438 C 444.789062 209.285156 445.164062 208.304688 445.566406 207.335938 C 445.96875 206.367188 446.394531 205.414062 446.839844 204.464844 C 447.289062 203.515625 447.757812 202.578125 448.253906 201.652344 C 448.75 200.730469 449.265625 199.816406 449.804688 198.917969 C 450.34375 198.019531 450.902344 197.132812 451.488281 196.261719 C 452.070312 195.390625 452.675781 194.53125 453.296875 193.691406 C 453.921875 192.847656 454.566406 192.023438 455.234375 191.210938 C 455.898438 190.398438 456.582031 189.605469 457.289062 188.828125 C 457.988281 188.054688 458.714844 187.292969 459.453125 186.554688 C 460.195312 185.808594 460.957031 185.085938 461.734375 184.386719 C 462.507812 183.679688 463.300781 182.996094 464.113281 182.332031 C 464.925781 181.664062 465.75 181.019531 466.59375 180.394531 C 467.433594 179.773438 468.292969 179.167969 469.164062 178.585938 C 470.035156 178 470.921875 177.441406 471.820312 176.902344 C 472.722656 176.363281 473.632812 175.847656 474.554688 175.351562 C 475.480469 174.855469 476.417969 174.386719 477.367188 173.9375 C 478.316406 173.492188 479.269531 173.0625 480.238281 172.664062 C 481.207031 172.261719 482.1875 171.886719 483.171875 171.53125 C 484.164062 171.179688 485.15625 170.847656 486.160156 170.546875 C 487.164062 170.242188 488.171875 169.964844 489.191406 169.707031 C 490.210938 169.449219 491.230469 169.222656 492.261719 169.019531 C 493.285156 168.8125 494.324219 168.636719 495.359375 168.480469 C 496.394531 168.328125 497.433594 168.199219 498.480469 168.097656 C 499.523438 167.992188 500.566406 167.914062 501.617188 167.867188 C 502.664062 167.8125 503.710938 167.785156 504.761719 167.785156 Z M 504.761719 167.785156 " fill-opacity="1" fill-rule="nonzero"/><path fill="#073764" d="M 279.894531 167.785156 L 388.5 167.785156 L 388.5 508.820312 L 279.894531 508.820312 Z M 279.894531 167.785156 " fill-opacity="1" fill-rule="nonzero"/></svg>